<?xml version="1.0" encoding="utf-8" standalone="no"?>
<!DOCTYPE svg PUBLIC "-//W3C//DTD SVG 1.1//EN"
  "http://www.w3.org/Graphics/SVG/1.1/DTD/svg11.dtd">
<svg xmlns:xlink="http://www.w3.org/1999/xlink" width="944.39952pt" height="533.99952pt" viewBox="0 0 944.39952 533.99952" xmlns="http://www.w3.org/2000/svg" version="1.1">
 <metadata>
  <rdf:RDF xmlns:dc="http://purl.org/dc/elements/1.1/" xmlns:cc="http://creativecommons.org/ns#" xmlns:rdf="http://www.w3.org/1999/02/22-rdf-syntax-ns#">
   <cc:Work>
    <dc:type rdf:resource="http://purl.org/dc/dcmitype/StillImage"/>
    <dc:date>2026-04-24T21:43:10.045360</dc:date>
    <dc:format>image/svg+xml</dc:format>
    <dc:creator>
     <cc:Agent>
      <dc:title>Matplotlib v3.9.2, https://matplotlib.org/</dc:title>
     </cc:Agent>
    </dc:creator>
   </cc:Work>
  </rdf:RDF>
 </metadata>
 <defs>
  <style type="text/css">*{stroke-linejoin: round; stroke-linecap: butt}</style>
 </defs>
 <g id="figure_1">
  <g id="patch_1">
   <path d="M 0 533.99952 
L 944.39952 533.99952 
L 944.39952 0 
L 0 0 
z
" style="fill: #ffffff"/>
  </g>
  <g id="axes_1">
   <g id="matplotlib.axis_1"/>
   <g id="matplotlib.axis_2"/>
   <g id="text_1">
    <g id="patch_2">
     <path d="M 69.895276 107.37869 
L 164.987776 107.37869 
Q 168.347776 107.37869 168.347776 104.01869 
L 168.347776 94.72769 
Q 168.347776 91.36769 164.987776 91.36769 
L 69.895276 91.36769 
Q 66.535276 91.36769 66.535276 94.72769 
L 66.535276 104.01869 
Q 66.535276 107.37869 69.895276 107.37869 
z
" style="fill: #eaf2f8; stroke: #2e75b6; stroke-width: 0.8; stroke-linejoin: miter"/>
    </g>
    <!-- Literature and trials -->
    <g style="fill: #262626" transform="translate(69.895276 102.02219) scale(0.096 -0.096)">
     <defs>
      <path id="DejaVuSans-4c" d="M 628 4666 
L 1259 4666 
L 1259 531 
L 3531 531 
L 3531 0 
L 628 0 
L 628 4666 
z
" transform="scale(0.015625)"/>
      <path id="DejaVuSans-69" d="M 603 3500 
L 1178 3500 
L 1178 0 
L 603 0 
L 603 3500 
z
M 603 4863 
L 1178 4863 
L 1178 4134 
L 603 4134 
L 603 4863 
z
" transform="scale(0.015625)"/>
      <path id="DejaVuSans-74" d="M 1172 4494 
L 1172 3500 
L 2356 3500 
L 2356 3053 
L 1172 3053 
L 1172 1153 
Q 1172 725 1289 603 
Q 1406 481 1766 481 
L 2356 481 
L 2356 0 
L 1766 0 
Q 1100 0 847 248 
Q 594 497 594 1153 
L 594 3053 
L 172 3053 
L 172 3500 
L 594 3500 
L 594 4494 
L 1172 4494 
z
" transform="scale(0.015625)"/>
      <path id="DejaVuSans-65" d="M 3597 1894 
L 3597 1613 
L 953 1613 
Q 991 1019 1311 708 
Q 1631 397 2203 397 
Q 2534 397 2845 478 
Q 3156 559 3463 722 
L 3463 178 
Q 3153 47 2828 -22 
Q 2503 -91 2169 -91 
Q 1331 -91 842 396 
Q 353 884 353 1716 
Q 353 2575 817 3079 
Q 1281 3584 2069 3584 
Q 2775 3584 3186 3129 
Q 3597 2675 3597 1894 
z
M 3022 2063 
Q 3016 2534 2758 2815 
Q 2500 3097 2075 3097 
Q 1594 3097 1305 2825 
Q 1016 2553 972 2059 
L 3022 2063 
z
" transform="scale(0.015625)"/>
      <path id="DejaVuSans-72" d="M 2631 2963 
Q 2534 3019 2420 3045 
Q 2306 3072 2169 3072 
Q 1681 3072 1420 2755 
Q 1159 2438 1159 1844 
L 1159 0 
L 581 0 
L 581 3500 
L 1159 3500 
L 1159 2956 
Q 1341 3275 1631 3429 
Q 1922 3584 2338 3584 
Q 2397 3584 2469 3576 
Q 2541 3569 2628 3553 
L 2631 2963 
z
" transform="scale(0.015625)"/>
      <path id="DejaVuSans-61" d="M 2194 1759 
Q 1497 1759 1228 1600 
Q 959 1441 959 1056 
Q 959 750 1161 570 
Q 1363 391 1709 391 
Q 2188 391 2477 730 
Q 2766 1069 2766 1631 
L 2766 1759 
L 2194 1759 
z
M 3341 1997 
L 3341 0 
L 2766 0 
L 2766 531 
Q 2569 213 2275 61 
Q 1981 -91 1556 -91 
Q 1019 -91 701 211 
Q 384 513 384 1019 
Q 384 1609 779 1909 
Q 1175 2209 1959 2209 
L 2766 2209 
L 2766 2266 
Q 2766 2663 2505 2880 
Q 2244 3097 1772 3097 
Q 1472 3097 1187 3025 
Q 903 2953 641 2809 
L 641 3341 
Q 956 3463 1253 3523 
Q 1550 3584 1831 3584 
Q 2591 3584 2966 3190 
Q 3341 2797 3341 1997 
z
" transform="scale(0.015625)"/>
      <path id="DejaVuSans-75" d="M 544 1381 
L 544 3500 
L 1119 3500 
L 1119 1403 
Q 1119 906 1312 657 
Q 1506 409 1894 409 
Q 2359 409 2629 706 
Q 2900 1003 2900 1516 
L 2900 3500 
L 3475 3500 
L 3475 0 
L 2900 0 
L 2900 538 
Q 2691 219 2414 64 
Q 2138 -91 1772 -91 
Q 1169 -91 856 284 
Q 544 659 544 1381 
z
M 1991 3584 
L 1991 3584 
z
" transform="scale(0.015625)"/>
      <path id="DejaVuSans-20" transform="scale(0.015625)"/>
      <path id="DejaVuSans-6e" d="M 3513 2113 
L 3513 0 
L 2938 0 
L 2938 2094 
Q 2938 2591 2744 2837 
Q 2550 3084 2163 3084 
Q 1697 3084 1428 2787 
Q 1159 2491 1159 1978 
L 1159 0 
L 581 0 
L 581 3500 
L 1159 3500 
L 1159 2956 
Q 1366 3272 1645 3428 
Q 1925 3584 2291 3584 
Q 2894 3584 3203 3211 
Q 3513 2838 3513 2113 
z
" transform="scale(0.015625)"/>
      <path id="DejaVuSans-64" d="M 2906 2969 
L 2906 4863 
L 3481 4863 
L 3481 0 
L 2906 0 
L 2906 525 
Q 2725 213 2448 61 
Q 2172 -91 1784 -91 
Q 1150 -91 751 415 
Q 353 922 353 1747 
Q 353 2572 751 3078 
Q 1150 3584 1784 3584 
Q 2172 3584 2448 3432 
Q 2725 3281 2906 2969 
z
M 947 1747 
Q 947 1113 1208 752 
Q 1469 391 1925 391 
Q 2381 391 2643 752 
Q 2906 1113 2906 1747 
Q 2906 2381 2643 2742 
Q 2381 3103 1925 3103 
Q 1469 3103 1208 2742 
Q 947 2381 947 1747 
z
" transform="scale(0.015625)"/>
      <path id="DejaVuSans-6c" d="M 603 4863 
L 1178 4863 
L 1178 0 
L 603 0 
L 603 4863 
z
" transform="scale(0.015625)"/>
      <path id="DejaVuSans-73" d="M 2834 3397 
L 2834 2853 
Q 2591 2978 2328 3040 
Q 2066 3103 1784 3103 
Q 1356 3103 1142 2972 
Q 928 2841 928 2578 
Q 928 2378 1081 2264 
Q 1234 2150 1697 2047 
L 1894 2003 
Q 2506 1872 2764 1633 
Q 3022 1394 3022 966 
Q 3022 478 2636 193 
Q 2250 -91 1575 -91 
Q 1294 -91 989 -36 
Q 684 19 347 128 
L 347 722 
Q 666 556 975 473 
Q 1284 391 1588 391 
Q 1994 391 2212 530 
Q 2431 669 2431 922 
Q 2431 1156 2273 1281 
Q 2116 1406 1581 1522 
L 1381 1569 
Q 847 1681 609 1914 
Q 372 2147 372 2553 
Q 372 3047 722 3315 
Q 1072 3584 1716 3584 
Q 2034 3584 2315 3537 
Q 2597 3491 2834 3397 
z
" transform="scale(0.015625)"/>
     </defs>
     <use xlink:href="#DejaVuSans-4c"/>
     <use xlink:href="#DejaVuSans-69" x="55.712891"/>
     <use xlink:href="#DejaVuSans-74" x="83.496094"/>
     <use xlink:href="#DejaVuSans-65" x="122.705078"/>
     <use xlink:href="#DejaVuSans-72" x="184.228516"/>
     <use xlink:href="#DejaVuSans-61" x="225.341797"/>
     <use xlink:href="#DejaVuSans-74" x="286.621094"/>
     <use xlink:href="#DejaVuSans-75" x="325.830078"/>
     <use xlink:href="#DejaVuSans-72" x="389.208984"/>
     <use xlink:href="#DejaVuSans-65" x="428.072266"/>
     <use xlink:href="#DejaVuSans-20" x="489.595703"/>
     <use xlink:href="#DejaVuSans-61" x="521.382812"/>
     <use xlink:href="#DejaVuSans-6e" x="582.662109"/>
     <use xlink:href="#DejaVuSans-64" x="646.041016"/>
     <use xlink:href="#DejaVuSans-20" x="709.517578"/>
     <use xlink:href="#DejaVuSans-74" x="741.304688"/>
     <use xlink:href="#DejaVuSans-72" x="780.513672"/>
     <use xlink:href="#DejaVuSans-69" x="821.626953"/>
     <use xlink:href="#DejaVuSans-61" x="849.410156"/>
     <use xlink:href="#DejaVuSans-6c" x="910.689453"/>
     <use xlink:href="#DejaVuSans-73" x="938.472656"/>
    </g>
   </g>
   <g id="text_2">
    <g id="patch_3">
     <path d="M 77.476276 182.605636 
L 157.406776 182.605636 
Q 160.766776 182.605636 160.766776 179.245636 
L 160.766776 169.954636 
Q 160.766776 166.594636 157.406776 166.594636 
L 77.476276 166.594636 
Q 74.116276 166.594636 74.116276 169.954636 
L 74.116276 179.245636 
Q 74.116276 182.605636 77.476276 182.605636 
z
" style="fill: #eaf2f8; stroke: #2e75b6; stroke-width: 0.8; stroke-linejoin: miter"/>
    </g>
    <!-- ClinicalTrials.gov -->
    <g style="fill: #262626" transform="translate(77.476276 177.249136) scale(0.096 -0.096)">
     <defs>
      <path id="DejaVuSans-43" d="M 4122 4306 
L 4122 3641 
Q 3803 3938 3442 4084 
Q 3081 4231 2675 4231 
Q 1875 4231 1450 3742 
Q 1025 3253 1025 2328 
Q 1025 1406 1450 917 
Q 1875 428 2675 428 
Q 3081 428 3442 575 
Q 3803 722 4122 1019 
L 4122 359 
Q 3791 134 3420 21 
Q 3050 -91 2638 -91 
Q 1578 -91 968 557 
Q 359 1206 359 2328 
Q 359 3453 968 4101 
Q 1578 4750 2638 4750 
Q 3056 4750 3426 4639 
Q 3797 4528 4122 4306 
z
" transform="scale(0.015625)"/>
      <path id="DejaVuSans-63" d="M 3122 3366 
L 3122 2828 
Q 2878 2963 2633 3030 
Q 2388 3097 2138 3097 
Q 1578 3097 1268 2742 
Q 959 2388 959 1747 
Q 959 1106 1268 751 
Q 1578 397 2138 397 
Q 2388 397 2633 464 
Q 2878 531 3122 666 
L 3122 134 
Q 2881 22 2623 -34 
Q 2366 -91 2075 -91 
Q 1284 -91 818 406 
Q 353 903 353 1747 
Q 353 2603 823 3093 
Q 1294 3584 2113 3584 
Q 2378 3584 2631 3529 
Q 2884 3475 3122 3366 
z
" transform="scale(0.015625)"/>
      <path id="DejaVuSans-54" d="M -19 4666 
L 3928 4666 
L 3928 4134 
L 2272 4134 
L 2272 0 
L 1638 0 
L 1638 4134 
L -19 4134 
L -19 4666 
z
" transform="scale(0.015625)"/>
      <path id="DejaVuSans-2e" d="M 684 794 
L 1344 794 
L 1344 0 
L 684 0 
L 684 794 
z
" transform="scale(0.015625)"/>
      <path id="DejaVuSans-67" d="M 2906 1791 
Q 2906 2416 2648 2759 
Q 2391 3103 1925 3103 
Q 1463 3103 1205 2759 
Q 947 2416 947 1791 
Q 947 1169 1205 825 
Q 1463 481 1925 481 
Q 2391 481 2648 825 
Q 2906 1169 2906 1791 
z
M 3481 434 
Q 3481 -459 3084 -895 
Q 2688 -1331 1869 -1331 
Q 1566 -1331 1297 -1286 
Q 1028 -1241 775 -1147 
L 775 -588 
Q 1028 -725 1275 -790 
Q 1522 -856 1778 -856 
Q 2344 -856 2625 -561 
Q 2906 -266 2906 331 
L 2906 616 
Q 2728 306 2450 153 
Q 2172 0 1784 0 
Q 1141 0 747 490 
Q 353 981 353 1791 
Q 353 2603 747 3093 
Q 1141 3584 1784 3584 
Q 2172 3584 2450 3431 
Q 2728 3278 2906 2969 
L 2906 3500 
L 3481 3500 
L 3481 434 
z
" transform="scale(0.015625)"/>
      <path id="DejaVuSans-6f" d="M 1959 3097 
Q 1497 3097 1228 2736 
Q 959 2375 959 1747 
Q 959 1119 1226 758 
Q 1494 397 1959 397 
Q 2419 397 2687 759 
Q 2956 1122 2956 1747 
Q 2956 2369 2687 2733 
Q 2419 3097 1959 3097 
z
M 1959 3584 
Q 2709 3584 3137 3096 
Q 3566 2609 3566 1747 
Q 3566 888 3137 398 
Q 2709 -91 1959 -91 
Q 1206 -91 779 398 
Q 353 888 353 1747 
Q 353 2609 779 3096 
Q 1206 3584 1959 3584 
z
" transform="scale(0.015625)"/>
      <path id="DejaVuSans-76" d="M 191 3500 
L 800 3500 
L 1894 563 
L 2988 3500 
L 3597 3500 
L 2284 0 
L 1503 0 
L 191 3500 
z
" transform="scale(0.015625)"/>
     </defs>
     <use xlink:href="#DejaVuSans-43"/>
     <use xlink:href="#DejaVuSans-6c" x="69.824219"/>
     <use xlink:href="#DejaVuSans-69" x="97.607422"/>
     <use xlink:href="#DejaVuSans-6e" x="125.390625"/>
     <use xlink:href="#DejaVuSans-69" x="188.769531"/>
     <use xlink:href="#DejaVuSans-63" x="216.552734"/>
     <use xlink:href="#DejaVuSans-61" x="271.533203"/>
     <use xlink:href="#DejaVuSans-6c" x="332.8125"/>
     <use xlink:href="#DejaVuSans-54" x="360.595703"/>
     <use xlink:href="#DejaVuSans-72" x="406.929688"/>
     <use xlink:href="#DejaVuSans-69" x="448.042969"/>
     <use xlink:href="#DejaVuSans-61" x="475.826172"/>
     <use xlink:href="#DejaVuSans-6c" x="537.105469"/>
     <use xlink:href="#DejaVuSans-73" x="564.888672"/>
     <use xlink:href="#DejaVuSans-2e" x="616.988281"/>
     <use xlink:href="#DejaVuSans-67" x="648.775391"/>
     <use xlink:href="#DejaVuSans-6f" x="712.251953"/>
     <use xlink:href="#DejaVuSans-76" x="773.433594"/>
    </g>
   </g>
   <g id="text_3">
    <g id="patch_4">
     <path d="M 80.315776 257.832583 
L 154.567276 257.832583 
Q 157.927276 257.832583 157.927276 254.472583 
L 157.927276 245.181583 
Q 157.927276 241.821583 154.567276 241.821583 
L 80.315776 241.821583 
Q 76.955776 241.821583 76.955776 245.181583 
L 76.955776 254.472583 
Q 76.955776 257.832583 80.315776 257.832583 
z
" style="fill: #eaf2f8; stroke: #2e75b6; stroke-width: 0.8; stroke-linejoin: miter"/>
    </g>
    <!-- GEO GSE72267 -->
    <g style="fill: #262626" transform="translate(80.315776 252.476083) scale(0.096 -0.096)">
     <defs>
      <path id="DejaVuSans-47" d="M 3809 666 
L 3809 1919 
L 2778 1919 
L 2778 2438 
L 4434 2438 
L 4434 434 
Q 4069 175 3628 42 
Q 3188 -91 2688 -91 
Q 1594 -91 976 548 
Q 359 1188 359 2328 
Q 359 3472 976 4111 
Q 1594 4750 2688 4750 
Q 3144 4750 3555 4637 
Q 3966 4525 4313 4306 
L 4313 3634 
Q 3963 3931 3569 4081 
Q 3175 4231 2741 4231 
Q 1884 4231 1454 3753 
Q 1025 3275 1025 2328 
Q 1025 1384 1454 906 
Q 1884 428 2741 428 
Q 3075 428 3337 486 
Q 3600 544 3809 666 
z
" transform="scale(0.015625)"/>
      <path id="DejaVuSans-45" d="M 628 4666 
L 3578 4666 
L 3578 4134 
L 1259 4134 
L 1259 2753 
L 3481 2753 
L 3481 2222 
L 1259 2222 
L 1259 531 
L 3634 531 
L 3634 0 
L 628 0 
L 628 4666 
z
" transform="scale(0.015625)"/>
      <path id="DejaVuSans-4f" d="M 2522 4238 
Q 1834 4238 1429 3725 
Q 1025 3213 1025 2328 
Q 1025 1447 1429 934 
Q 1834 422 2522 422 
Q 3209 422 3611 934 
Q 4013 1447 4013 2328 
Q 4013 3213 3611 3725 
Q 3209 4238 2522 4238 
z
M 2522 4750 
Q 3503 4750 4090 4092 
Q 4678 3434 4678 2328 
Q 4678 1225 4090 567 
Q 3503 -91 2522 -91 
Q 1538 -91 948 565 
Q 359 1222 359 2328 
Q 359 3434 948 4092 
Q 1538 4750 2522 4750 
z
" transform="scale(0.015625)"/>
      <path id="DejaVuSans-53" d="M 3425 4513 
L 3425 3897 
Q 3066 4069 2747 4153 
Q 2428 4238 2131 4238 
Q 1616 4238 1336 4038 
Q 1056 3838 1056 3469 
Q 1056 3159 1242 3001 
Q 1428 2844 1947 2747 
L 2328 2669 
Q 3034 2534 3370 2195 
Q 3706 1856 3706 1288 
Q 3706 609 3251 259 
Q 2797 -91 1919 -91 
Q 1588 -91 1214 -16 
Q 841 59 441 206 
L 441 856 
Q 825 641 1194 531 
Q 1563 422 1919 422 
Q 2459 422 2753 634 
Q 3047 847 3047 1241 
Q 3047 1584 2836 1778 
Q 2625 1972 2144 2069 
L 1759 2144 
Q 1053 2284 737 2584 
Q 422 2884 422 3419 
Q 422 4038 858 4394 
Q 1294 4750 2059 4750 
Q 2388 4750 2728 4690 
Q 3069 4631 3425 4513 
z
" transform="scale(0.015625)"/>
      <path id="DejaVuSans-37" d="M 525 4666 
L 3525 4666 
L 3525 4397 
L 1831 0 
L 1172 0 
L 2766 4134 
L 525 4134 
L 525 4666 
z
" transform="scale(0.015625)"/>
      <path id="DejaVuSans-32" d="M 1228 531 
L 3431 531 
L 3431 0 
L 469 0 
L 469 531 
Q 828 903 1448 1529 
Q 2069 2156 2228 2338 
Q 2531 2678 2651 2914 
Q 2772 3150 2772 3378 
Q 2772 3750 2511 3984 
Q 2250 4219 1831 4219 
Q 1534 4219 1204 4116 
Q 875 4013 500 3803 
L 500 4441 
Q 881 4594 1212 4672 
Q 1544 4750 1819 4750 
Q 2544 4750 2975 4387 
Q 3406 4025 3406 3419 
Q 3406 3131 3298 2873 
Q 3191 2616 2906 2266 
Q 2828 2175 2409 1742 
Q 1991 1309 1228 531 
z
" transform="scale(0.015625)"/>
      <path id="DejaVuSans-36" d="M 2113 2584 
Q 1688 2584 1439 2293 
Q 1191 2003 1191 1497 
Q 1191 994 1439 701 
Q 1688 409 2113 409 
Q 2538 409 2786 701 
Q 3034 994 3034 1497 
Q 3034 2003 2786 2293 
Q 2538 2584 2113 2584 
z
M 3366 4563 
L 3366 3988 
Q 3128 4100 2886 4159 
Q 2644 4219 2406 4219 
Q 1781 4219 1451 3797 
Q 1122 3375 1075 2522 
Q 1259 2794 1537 2939 
Q 1816 3084 2150 3084 
Q 2853 3084 3261 2657 
Q 3669 2231 3669 1497 
Q 3669 778 3244 343 
Q 2819 -91 2113 -91 
Q 1303 -91 875 529 
Q 447 1150 447 2328 
Q 447 3434 972 4092 
Q 1497 4750 2381 4750 
Q 2619 4750 2861 4703 
Q 3103 4656 3366 4563 
z
" transform="scale(0.015625)"/>
     </defs>
     <use xlink:href="#DejaVuSans-47"/>
     <use xlink:href="#DejaVuSans-45" x="77.490234"/>
     <use xlink:href="#DejaVuSans-4f" x="140.673828"/>
     <use xlink:href="#DejaVuSans-20" x="219.384766"/>
     <use xlink:href="#DejaVuSans-47" x="251.171875"/>
     <use xlink:href="#DejaVuSans-53" x="328.662109"/>
     <use xlink:href="#DejaVuSans-45" x="392.138672"/>
     <use xlink:href="#DejaVuSans-37" x="455.322266"/>
     <use xlink:href="#DejaVuSans-32" x="518.945312"/>
     <use xlink:href="#DejaVuSans-32" x="582.568359"/>
     <use xlink:href="#DejaVuSans-36" x="646.191406"/>
     <use xlink:href="#DejaVuSans-37" x="709.814453"/>
    </g>
   </g>
   <g id="text_4">
    <g id="patch_5">
     <path d="M 78.769276 333.059529 
L 156.113776 333.059529 
Q 159.473776 333.059529 159.473776 329.699529 
L 159.473776 320.408529 
Q 159.473776 317.048529 156.113776 317.048529 
L 78.769276 317.048529 
Q 75.409276 317.048529 75.409276 320.408529 
L 75.409276 329.699529 
Q 75.409276 333.059529 78.769276 333.059529 
z
" style="fill: #eaf2f8; stroke: #2e75b6; stroke-width: 0.8; stroke-linejoin: miter"/>
    </g>
    <!-- GO + Reactome -->
    <g style="fill: #262626" transform="translate(78.769276 327.703029) scale(0.096 -0.096)">
     <defs>
      <path id="DejaVuSans-2b" d="M 2944 4013 
L 2944 2272 
L 4684 2272 
L 4684 1741 
L 2944 1741 
L 2944 0 
L 2419 0 
L 2419 1741 
L 678 1741 
L 678 2272 
L 2419 2272 
L 2419 4013 
L 2944 4013 
z
" transform="scale(0.015625)"/>
      <path id="DejaVuSans-52" d="M 2841 2188 
Q 3044 2119 3236 1894 
Q 3428 1669 3622 1275 
L 4263 0 
L 3584 0 
L 2988 1197 
Q 2756 1666 2539 1819 
Q 2322 1972 1947 1972 
L 1259 1972 
L 1259 0 
L 628 0 
L 628 4666 
L 2053 4666 
Q 2853 4666 3247 4331 
Q 3641 3997 3641 3322 
Q 3641 2881 3436 2590 
Q 3231 2300 2841 2188 
z
M 1259 4147 
L 1259 2491 
L 2053 2491 
Q 2509 2491 2742 2702 
Q 2975 2913 2975 3322 
Q 2975 3731 2742 3939 
Q 2509 4147 2053 4147 
L 1259 4147 
z
" transform="scale(0.015625)"/>
      <path id="DejaVuSans-6d" d="M 3328 2828 
Q 3544 3216 3844 3400 
Q 4144 3584 4550 3584 
Q 5097 3584 5394 3201 
Q 5691 2819 5691 2113 
L 5691 0 
L 5113 0 
L 5113 2094 
Q 5113 2597 4934 2840 
Q 4756 3084 4391 3084 
Q 3944 3084 3684 2787 
Q 3425 2491 3425 1978 
L 3425 0 
L 2847 0 
L 2847 2094 
Q 2847 2600 2669 2842 
Q 2491 3084 2119 3084 
Q 1678 3084 1418 2786 
Q 1159 2488 1159 1978 
L 1159 0 
L 581 0 
L 581 3500 
L 1159 3500 
L 1159 2956 
Q 1356 3278 1631 3431 
Q 1906 3584 2284 3584 
Q 2666 3584 2933 3390 
Q 3200 3197 3328 2828 
z
" transform="scale(0.015625)"/>
     </defs>
     <use xlink:href="#DejaVuSans-47"/>
     <use xlink:href="#DejaVuSans-4f" x="77.490234"/>
     <use xlink:href="#DejaVuSans-20" x="156.201172"/>
     <use xlink:href="#DejaVuSans-2b" x="187.988281"/>
     <use xlink:href="#DejaVuSans-20" x="271.777344"/>
     <use xlink:href="#DejaVuSans-52" x="303.564453"/>
     <use xlink:href="#DejaVuSans-65" x="368.546875"/>
     <use xlink:href="#DejaVuSans-61" x="430.070312"/>
     <use xlink:href="#DejaVuSans-63" x="491.349609"/>
     <use xlink:href="#DejaVuSans-74" x="546.330078"/>
     <use xlink:href="#DejaVuSans-6f" x="585.539062"/>
     <use xlink:href="#DejaVuSans-6d" x="646.720703"/>
     <use xlink:href="#DejaVuSans-65" x="744.132812"/>
    </g>
   </g>
   <g id="text_5">
    <g id="patch_6">
     <path d="M 76.540276 408.286475 
L 158.342776 408.286475 
Q 161.702776 408.286475 161.702776 404.926475 
L 161.702776 395.635475 
Q 161.702776 392.275475 158.342776 392.275475 
L 76.540276 392.275475 
Q 73.180276 392.275475 73.180276 395.635475 
L 73.180276 404.926475 
Q 73.180276 408.286475 76.540276 408.286475 
z
" style="fill: #eaf2f8; stroke: #2e75b6; stroke-width: 0.8; stroke-linejoin: miter"/>
    </g>
    <!-- Drug-target logic -->
    <g style="fill: #262626" transform="translate(76.540276 402.929975) scale(0.096 -0.096)">
     <defs>
      <path id="DejaVuSans-44" d="M 1259 4147 
L 1259 519 
L 2022 519 
Q 2988 519 3436 956 
Q 3884 1394 3884 2338 
Q 3884 3275 3436 3711 
Q 2988 4147 2022 4147 
L 1259 4147 
z
M 628 4666 
L 1925 4666 
Q 3281 4666 3915 4102 
Q 4550 3538 4550 2338 
Q 4550 1131 3912 565 
Q 3275 0 1925 0 
L 628 0 
L 628 4666 
z
" transform="scale(0.015625)"/>
      <path id="DejaVuSans-2d" d="M 313 2009 
L 1997 2009 
L 1997 1497 
L 313 1497 
L 313 2009 
z
" transform="scale(0.015625)"/>
     </defs>
     <use xlink:href="#DejaVuSans-44"/>
     <use xlink:href="#DejaVuSans-72" x="77.001953"/>
     <use xlink:href="#DejaVuSans-75" x="118.115234"/>
     <use xlink:href="#DejaVuSans-67" x="181.494141"/>
     <use xlink:href="#DejaVuSans-2d" x="244.970703"/>
     <use xlink:href="#DejaVuSans-74" x="281.054688"/>
     <use xlink:href="#DejaVuSans-61" x="320.263672"/>
     <use xlink:href="#DejaVuSans-72" x="381.542969"/>
     <use xlink:href="#DejaVuSans-67" x="420.90625"/>
     <use xlink:href="#DejaVuSans-65" x="484.382812"/>
     <use xlink:href="#DejaVuSans-74" x="545.90625"/>
     <use xlink:href="#DejaVuSans-20" x="585.115234"/>
     <use xlink:href="#DejaVuSans-6c" x="616.902344"/>
     <use xlink:href="#DejaVuSans-6f" x="644.685547"/>
     <use xlink:href="#DejaVuSans-67" x="705.867188"/>
     <use xlink:href="#DejaVuSans-69" x="769.34375"/>
     <use xlink:href="#DejaVuSans-63" x="797.126953"/>
    </g>
   </g>
   <g id="patch_7">
    <path d="M 198.813822 278.037188 
Q 221.067147 278.037188 241.084405 278.037188 
" style="fill: none; stroke: #ffffff; stroke-width: 2; stroke-linecap: round"/>
    <path d="M 237.244405 276.117188 
L 241.084405 278.037188 
L 237.244405 279.957188 
" style="fill: none; stroke: #ffffff; stroke-width: 2; stroke-linecap: round"/>
   </g>
   <g id="text_6">
    <!-- Evidence sources -->
    <g style="fill: #262626" transform="translate(58.903089 36.95298) scale(0.12 -0.12)">
     <defs>
      <path id="DejaVuSans-Bold-45" d="M 588 4666 
L 3834 4666 
L 3834 3756 
L 1791 3756 
L 1791 2888 
L 3713 2888 
L 3713 1978 
L 1791 1978 
L 1791 909 
L 3903 909 
L 3903 0 
L 588 0 
L 588 4666 
z
" transform="scale(0.015625)"/>
      <path id="DejaVuSans-Bold-76" d="M 97 3500 
L 1216 3500 
L 2088 1081 
L 2956 3500 
L 4078 3500 
L 2700 0 
L 1472 0 
L 97 3500 
z
" transform="scale(0.015625)"/>
      <path id="DejaVuSans-Bold-69" d="M 538 3500 
L 1656 3500 
L 1656 0 
L 538 0 
L 538 3500 
z
M 538 4863 
L 1656 4863 
L 1656 3950 
L 538 3950 
L 538 4863 
z
" transform="scale(0.015625)"/>
      <path id="DejaVuSans-Bold-64" d="M 2919 2988 
L 2919 4863 
L 4044 4863 
L 4044 0 
L 2919 0 
L 2919 506 
Q 2688 197 2409 53 
Q 2131 -91 1766 -91 
Q 1119 -91 703 423 
Q 288 938 288 1747 
Q 288 2556 703 3070 
Q 1119 3584 1766 3584 
Q 2128 3584 2408 3439 
Q 2688 3294 2919 2988 
z
M 2181 722 
Q 2541 722 2730 984 
Q 2919 1247 2919 1747 
Q 2919 2247 2730 2509 
Q 2541 2772 2181 2772 
Q 1825 2772 1636 2509 
Q 1447 2247 1447 1747 
Q 1447 1247 1636 984 
Q 1825 722 2181 722 
z
" transform="scale(0.015625)"/>
      <path id="DejaVuSans-Bold-65" d="M 4031 1759 
L 4031 1441 
L 1416 1441 
Q 1456 1047 1700 850 
Q 1944 653 2381 653 
Q 2734 653 3104 758 
Q 3475 863 3866 1075 
L 3866 213 
Q 3469 63 3072 -14 
Q 2675 -91 2278 -91 
Q 1328 -91 801 392 
Q 275 875 275 1747 
Q 275 2603 792 3093 
Q 1309 3584 2216 3584 
Q 3041 3584 3536 3087 
Q 4031 2591 4031 1759 
z
M 2881 2131 
Q 2881 2450 2695 2645 
Q 2509 2841 2209 2841 
Q 1884 2841 1681 2658 
Q 1478 2475 1428 2131 
L 2881 2131 
z
" transform="scale(0.015625)"/>
      <path id="DejaVuSans-Bold-6e" d="M 4056 2131 
L 4056 0 
L 2931 0 
L 2931 347 
L 2931 1631 
Q 2931 2084 2911 2256 
Q 2891 2428 2841 2509 
Q 2775 2619 2662 2680 
Q 2550 2741 2406 2741 
Q 2056 2741 1856 2470 
Q 1656 2200 1656 1722 
L 1656 0 
L 538 0 
L 538 3500 
L 1656 3500 
L 1656 2988 
Q 1909 3294 2193 3439 
Q 2478 3584 2822 3584 
Q 3428 3584 3742 3212 
Q 4056 2841 4056 2131 
z
" transform="scale(0.015625)"/>
      <path id="DejaVuSans-Bold-63" d="M 3366 3391 
L 3366 2478 
Q 3138 2634 2908 2709 
Q 2678 2784 2431 2784 
Q 1963 2784 1702 2511 
Q 1441 2238 1441 1747 
Q 1441 1256 1702 982 
Q 1963 709 2431 709 
Q 2694 709 2930 787 
Q 3166 866 3366 1019 
L 3366 103 
Q 3103 6 2833 -42 
Q 2563 -91 2291 -91 
Q 1344 -91 809 395 
Q 275 881 275 1747 
Q 275 2613 809 3098 
Q 1344 3584 2291 3584 
Q 2566 3584 2833 3536 
Q 3100 3488 3366 3391 
z
" transform="scale(0.015625)"/>
      <path id="DejaVuSans-Bold-20" transform="scale(0.015625)"/>
      <path id="DejaVuSans-Bold-73" d="M 3272 3391 
L 3272 2541 
Q 2913 2691 2578 2766 
Q 2244 2841 1947 2841 
Q 1628 2841 1473 2761 
Q 1319 2681 1319 2516 
Q 1319 2381 1436 2309 
Q 1553 2238 1856 2203 
L 2053 2175 
Q 2913 2066 3209 1816 
Q 3506 1566 3506 1031 
Q 3506 472 3093 190 
Q 2681 -91 1863 -91 
Q 1516 -91 1145 -36 
Q 775 19 384 128 
L 384 978 
Q 719 816 1070 734 
Q 1422 653 1784 653 
Q 2113 653 2278 743 
Q 2444 834 2444 1013 
Q 2444 1163 2330 1236 
Q 2216 1309 1875 1350 
L 1678 1375 
Q 931 1469 631 1722 
Q 331 1975 331 2491 
Q 331 3047 712 3315 
Q 1094 3584 1881 3584 
Q 2191 3584 2531 3537 
Q 2872 3491 3272 3391 
z
" transform="scale(0.015625)"/>
      <path id="DejaVuSans-Bold-6f" d="M 2203 2784 
Q 1831 2784 1636 2517 
Q 1441 2250 1441 1747 
Q 1441 1244 1636 976 
Q 1831 709 2203 709 
Q 2569 709 2762 976 
Q 2956 1244 2956 1747 
Q 2956 2250 2762 2517 
Q 2569 2784 2203 2784 
z
M 2203 3584 
Q 3106 3584 3614 3096 
Q 4122 2609 4122 1747 
Q 4122 884 3614 396 
Q 3106 -91 2203 -91 
Q 1297 -91 786 396 
Q 275 884 275 1747 
Q 275 2609 786 3096 
Q 1297 3584 2203 3584 
z
" transform="scale(0.015625)"/>
      <path id="DejaVuSans-Bold-75" d="M 500 1363 
L 500 3500 
L 1625 3500 
L 1625 3150 
Q 1625 2866 1622 2436 
Q 1619 2006 1619 1863 
Q 1619 1441 1641 1255 
Q 1663 1069 1716 984 
Q 1784 875 1895 815 
Q 2006 756 2150 756 
Q 2500 756 2700 1025 
Q 2900 1294 2900 1772 
L 2900 3500 
L 4019 3500 
L 4019 0 
L 2900 0 
L 2900 506 
Q 2647 200 2364 54 
Q 2081 -91 1741 -91 
Q 1134 -91 817 281 
Q 500 653 500 1363 
z
" transform="scale(0.015625)"/>
      <path id="DejaVuSans-Bold-72" d="M 3138 2547 
Q 2991 2616 2845 2648 
Q 2700 2681 2553 2681 
Q 2122 2681 1889 2404 
Q 1656 2128 1656 1613 
L 1656 0 
L 538 0 
L 538 3500 
L 1656 3500 
L 1656 2925 
Q 1872 3269 2151 3426 
Q 2431 3584 2822 3584 
Q 2878 3584 2943 3579 
Q 3009 3575 3134 3559 
L 3138 2547 
z
" transform="scale(0.015625)"/>
     </defs>
     <use xlink:href="#DejaVuSans-Bold-45"/>
     <use xlink:href="#DejaVuSans-Bold-76" x="68.310547"/>
     <use xlink:href="#DejaVuSans-Bold-69" x="133.496094"/>
     <use xlink:href="#DejaVuSans-Bold-64" x="167.773438"/>
     <use xlink:href="#DejaVuSans-Bold-65" x="239.355469"/>
     <use xlink:href="#DejaVuSans-Bold-6e" x="307.177734"/>
     <use xlink:href="#DejaVuSans-Bold-63" x="378.369141"/>
     <use xlink:href="#DejaVuSans-Bold-65" x="437.646484"/>
     <use xlink:href="#DejaVuSans-Bold-20" x="505.46875"/>
     <use xlink:href="#DejaVuSans-Bold-73" x="540.283203"/>
     <use xlink:href="#DejaVuSans-Bold-6f" x="599.804688"/>
     <use xlink:href="#DejaVuSans-Bold-75" x="668.505859"/>
     <use xlink:href="#DejaVuSans-Bold-72" x="739.697266"/>
     <use xlink:href="#DejaVuSans-Bold-63" x="789.013672"/>
     <use xlink:href="#DejaVuSans-Bold-65" x="848.291016"/>
     <use xlink:href="#DejaVuSans-Bold-73" x="916.113281"/>
    </g>
   </g>
  </g>
  <g id="axes_2">
   <g id="matplotlib.axis_3"/>
   <g id="matplotlib.axis_4"/>
   <g id="patch_8">
    <path d="M 348.936037 63.001741 
C 336.281041 63.001741 323.803931 65.997231 312.528247 71.742479 
C 301.252563 77.487727 291.4953 85.821217 284.05688 96.059324 
C 276.618461 106.297432 271.708002 118.15233 269.728325 130.651522 
C 267.748648 143.150715 268.755408 155.942808 272.666018 167.978425 
L 348.936037 143.196787 
z
" style="fill: #66c2a5; stroke: #ffffff; stroke-width: 0.8; stroke-linejoin: miter"/>
   </g>
   <g id="patch_9">
    <path d="M 272.666018 167.978425 
C 277.898573 184.082569 288.099573 198.123038 301.798577 208.075946 
C 315.497582 218.028853 332.003145 223.391834 348.936044 223.391833 
L 348.936037 143.196787 
z
" style="fill: #fc8d62; stroke: #ffffff; stroke-width: 0.8; stroke-linejoin: miter"/>
   </g>
   <g id="patch_10">
    <path d="M 348.936044 223.391833 
C 361.591041 223.391831 374.06815 220.396341 385.343834 214.651092 
C 396.619517 208.905842 406.376779 200.572352 413.815198 190.334244 
L 348.936037 143.196787 
z
" style="fill: #8da0cb; stroke: #ffffff; stroke-width: 0.8; stroke-linejoin: miter"/>
   </g>
   <g id="patch_11">
    <path d="M 413.815198 190.334244 
C 421.253617 180.096136 426.164075 168.241237 428.14375 155.742044 
C 430.123426 143.242852 429.116664 130.450758 425.206053 118.415142 
L 348.936037 143.196787 
z
" style="fill: #e78ac3; stroke: #ffffff; stroke-width: 0.8; stroke-linejoin: miter"/>
   </g>
   <g id="patch_12">
    <path d="M 425.206053 118.415142 
C 422.605601 110.411778 418.761536 102.867378 413.815183 96.059311 
C 408.868831 89.251243 402.88156 83.263974 396.07349 78.317624 
L 348.936037 143.196787 
z
" style="fill: #a6d854; stroke: #ffffff; stroke-width: 0.8; stroke-linejoin: miter"/>
   </g>
   <g id="patch_13">
    <path d="M 396.07349 78.317624 
C 389.265421 73.371274 381.72102 69.527211 373.717655 66.926762 
C 365.71429 64.326312 357.351258 63.00174 348.936022 63.001741 
L 348.936037 143.196787 
z
" style="fill: #ffd92f; stroke: #ffffff; stroke-width: 0.8; stroke-linejoin: miter"/>
   </g>
   <g id="text_7">
    <!-- Human -->
    <g style="fill: #262626" transform="translate(248.717715 93.553078) scale(0.08 -0.08)">
     <defs>
      <path id="DejaVuSans-48" d="M 628 4666 
L 1259 4666 
L 1259 2753 
L 3553 2753 
L 3553 4666 
L 4184 4666 
L 4184 0 
L 3553 0 
L 3553 2222 
L 1259 2222 
L 1259 0 
L 628 0 
L 628 4666 
z
" transform="scale(0.015625)"/>
     </defs>
     <use xlink:href="#DejaVuSans-48"/>
     <use xlink:href="#DejaVuSans-75" x="75.195312"/>
     <use xlink:href="#DejaVuSans-6d" x="138.574219"/>
     <use xlink:href="#DejaVuSans-61" x="235.986328"/>
     <use xlink:href="#DejaVuSans-6e" x="297.265625"/>
    </g>
   </g>
   <g id="text_8">
    <!-- Mechanism -->
    <g style="fill: #262626" transform="translate(251.636081 216.771362) scale(0.08 -0.08)">
     <defs>
      <path id="DejaVuSans-4d" d="M 628 4666 
L 1569 4666 
L 2759 1491 
L 3956 4666 
L 4897 4666 
L 4897 0 
L 4281 0 
L 4281 4097 
L 3078 897 
L 2444 897 
L 1241 4097 
L 1241 0 
L 628 0 
L 628 4666 
z
" transform="scale(0.015625)"/>
      <path id="DejaVuSans-68" d="M 3513 2113 
L 3513 0 
L 2938 0 
L 2938 2094 
Q 2938 2591 2744 2837 
Q 2550 3084 2163 3084 
Q 1697 3084 1428 2787 
Q 1159 2491 1159 1978 
L 1159 0 
L 581 0 
L 581 4863 
L 1159 4863 
L 1159 2956 
Q 1366 3272 1645 3428 
Q 1925 3584 2291 3584 
Q 2894 3584 3203 3211 
Q 3513 2838 3513 2113 
z
" transform="scale(0.015625)"/>
     </defs>
     <use xlink:href="#DejaVuSans-4d"/>
     <use xlink:href="#DejaVuSans-65" x="86.279297"/>
     <use xlink:href="#DejaVuSans-63" x="147.802734"/>
     <use xlink:href="#DejaVuSans-68" x="202.783203"/>
     <use xlink:href="#DejaVuSans-61" x="266.162109"/>
     <use xlink:href="#DejaVuSans-6e" x="327.441406"/>
     <use xlink:href="#DejaVuSans-69" x="390.820312"/>
     <use xlink:href="#DejaVuSans-73" x="418.603516"/>
     <use xlink:href="#DejaVuSans-6d" x="470.703125"/>
    </g>
   </g>
   <g id="text_9">
    <!-- Omics -->
    <g style="fill: #262626" transform="translate(388.984613 224.004022) scale(0.08 -0.08)">
     <use xlink:href="#DejaVuSans-4f"/>
     <use xlink:href="#DejaVuSans-6d" x="78.710938"/>
     <use xlink:href="#DejaVuSans-69" x="176.123047"/>
     <use xlink:href="#DejaVuSans-63" x="203.90625"/>
     <use xlink:href="#DejaVuSans-73" x="258.886719"/>
    </g>
   </g>
   <g id="text_10">
    <!-- Safety -->
    <g style="fill: #262626" transform="translate(436.064522 159.20407) scale(0.08 -0.08)">
     <defs>
      <path id="DejaVuSans-66" d="M 2375 4863 
L 2375 4384 
L 1825 4384 
Q 1516 4384 1395 4259 
Q 1275 4134 1275 3809 
L 1275 3500 
L 2222 3500 
L 2222 3053 
L 1275 3053 
L 1275 0 
L 697 0 
L 697 3053 
L 147 3053 
L 147 3500 
L 697 3500 
L 697 3744 
Q 697 4328 969 4595 
Q 1241 4863 1831 4863 
L 2375 4863 
z
" transform="scale(0.015625)"/>
      <path id="DejaVuSans-79" d="M 2059 -325 
Q 1816 -950 1584 -1140 
Q 1353 -1331 966 -1331 
L 506 -1331 
L 506 -850 
L 844 -850 
Q 1081 -850 1212 -737 
Q 1344 -625 1503 -206 
L 1606 56 
L 191 3500 
L 800 3500 
L 1894 763 
L 2988 3500 
L 3597 3500 
L 2059 -325 
z
" transform="scale(0.015625)"/>
     </defs>
     <use xlink:href="#DejaVuSans-53"/>
     <use xlink:href="#DejaVuSans-61" x="63.476562"/>
     <use xlink:href="#DejaVuSans-66" x="124.755859"/>
     <use xlink:href="#DejaVuSans-65" x="159.960938"/>
     <use xlink:href="#DejaVuSans-74" x="221.484375"/>
     <use xlink:href="#DejaVuSans-79" x="260.693359"/>
    </g>
   </g>
   <g id="text_11">
    <!-- Feasible -->
    <g style="fill: #262626" transform="translate(420.303098 93.553063) scale(0.08 -0.08)">
     <defs>
      <path id="DejaVuSans-46" d="M 628 4666 
L 3309 4666 
L 3309 4134 
L 1259 4134 
L 1259 2759 
L 3109 2759 
L 3109 2228 
L 1259 2228 
L 1259 0 
L 628 0 
L 628 4666 
z
" transform="scale(0.015625)"/>
      <path id="DejaVuSans-62" d="M 3116 1747 
Q 3116 2381 2855 2742 
Q 2594 3103 2138 3103 
Q 1681 3103 1420 2742 
Q 1159 2381 1159 1747 
Q 1159 1113 1420 752 
Q 1681 391 2138 391 
Q 2594 391 2855 752 
Q 3116 1113 3116 1747 
z
M 1159 2969 
Q 1341 3281 1617 3432 
Q 1894 3584 2278 3584 
Q 2916 3584 3314 3078 
Q 3713 2572 3713 1747 
Q 3713 922 3314 415 
Q 2916 -91 2278 -91 
Q 1894 -91 1617 61 
Q 1341 213 1159 525 
L 1159 0 
L 581 0 
L 581 4863 
L 1159 4863 
L 1159 2969 
z
" transform="scale(0.015625)"/>
     </defs>
     <use xlink:href="#DejaVuSans-46"/>
     <use xlink:href="#DejaVuSans-65" x="52.019531"/>
     <use xlink:href="#DejaVuSans-61" x="113.542969"/>
     <use xlink:href="#DejaVuSans-73" x="174.822266"/>
     <use xlink:href="#DejaVuSans-69" x="226.921875"/>
     <use xlink:href="#DejaVuSans-62" x="254.705078"/>
     <use xlink:href="#DejaVuSans-6c" x="318.181641"/>
     <use xlink:href="#DejaVuSans-65" x="345.964844"/>
    </g>
   </g>
   <g id="text_12">
    <!-- Prevention -->
    <g style="fill: #262626" transform="translate(376.195817 61.507259) scale(0.08 -0.08)">
     <defs>
      <path id="DejaVuSans-50" d="M 1259 4147 
L 1259 2394 
L 2053 2394 
Q 2494 2394 2734 2622 
Q 2975 2850 2975 3272 
Q 2975 3691 2734 3919 
Q 2494 4147 2053 4147 
L 1259 4147 
z
M 628 4666 
L 2053 4666 
Q 2838 4666 3239 4311 
Q 3641 3956 3641 3272 
Q 3641 2581 3239 2228 
Q 2838 1875 2053 1875 
L 1259 1875 
L 1259 0 
L 628 0 
L 628 4666 
z
" transform="scale(0.015625)"/>
     </defs>
     <use xlink:href="#DejaVuSans-50"/>
     <use xlink:href="#DejaVuSans-72" x="58.552734"/>
     <use xlink:href="#DejaVuSans-65" x="97.416016"/>
     <use xlink:href="#DejaVuSans-76" x="158.939453"/>
     <use xlink:href="#DejaVuSans-65" x="218.119141"/>
     <use xlink:href="#DejaVuSans-6e" x="279.642578"/>
     <use xlink:href="#DejaVuSans-74" x="343.021484"/>
     <use xlink:href="#DejaVuSans-69" x="382.230469"/>
     <use xlink:href="#DejaVuSans-6f" x="410.013672"/>
     <use xlink:href="#DejaVuSans-6e" x="471.195312"/>
    </g>
   </g>
   <g id="text_13">
    <!-- Scoring rubric -->
    <g style="fill: #262626" transform="translate(301.168537 36.95298) scale(0.12 -0.12)">
     <defs>
      <path id="DejaVuSans-Bold-53" d="M 3834 4519 
L 3834 3531 
Q 3450 3703 3084 3790 
Q 2719 3878 2394 3878 
Q 1963 3878 1756 3759 
Q 1550 3641 1550 3391 
Q 1550 3203 1689 3098 
Q 1828 2994 2194 2919 
L 2706 2816 
Q 3484 2659 3812 2340 
Q 4141 2022 4141 1434 
Q 4141 663 3683 286 
Q 3225 -91 2284 -91 
Q 1841 -91 1394 -6 
Q 947 78 500 244 
L 500 1259 
Q 947 1022 1364 901 
Q 1781 781 2169 781 
Q 2563 781 2772 912 
Q 2981 1044 2981 1288 
Q 2981 1506 2839 1625 
Q 2697 1744 2272 1838 
L 1806 1941 
Q 1106 2091 782 2419 
Q 459 2747 459 3303 
Q 459 4000 909 4375 
Q 1359 4750 2203 4750 
Q 2588 4750 2994 4692 
Q 3400 4634 3834 4519 
z
" transform="scale(0.015625)"/>
      <path id="DejaVuSans-Bold-67" d="M 2919 594 
Q 2688 288 2409 144 
Q 2131 0 1766 0 
Q 1125 0 706 504 
Q 288 1009 288 1791 
Q 288 2575 706 3076 
Q 1125 3578 1766 3578 
Q 2131 3578 2409 3434 
Q 2688 3291 2919 2981 
L 2919 3500 
L 4044 3500 
L 4044 353 
Q 4044 -491 3511 -936 
Q 2978 -1381 1966 -1381 
Q 1638 -1381 1331 -1331 
Q 1025 -1281 716 -1178 
L 716 -306 
Q 1009 -475 1290 -558 
Q 1572 -641 1856 -641 
Q 2406 -641 2662 -400 
Q 2919 -159 2919 353 
L 2919 594 
z
M 2181 2772 
Q 1834 2772 1640 2515 
Q 1447 2259 1447 1791 
Q 1447 1309 1634 1061 
Q 1822 813 2181 813 
Q 2531 813 2725 1069 
Q 2919 1325 2919 1791 
Q 2919 2259 2725 2515 
Q 2531 2772 2181 2772 
z
" transform="scale(0.015625)"/>
      <path id="DejaVuSans-Bold-62" d="M 2400 722 
Q 2759 722 2948 984 
Q 3138 1247 3138 1747 
Q 3138 2247 2948 2509 
Q 2759 2772 2400 2772 
Q 2041 2772 1848 2508 
Q 1656 2244 1656 1747 
Q 1656 1250 1848 986 
Q 2041 722 2400 722 
z
M 1656 2988 
Q 1888 3294 2169 3439 
Q 2450 3584 2816 3584 
Q 3463 3584 3878 3070 
Q 4294 2556 4294 1747 
Q 4294 938 3878 423 
Q 3463 -91 2816 -91 
Q 2450 -91 2169 54 
Q 1888 200 1656 506 
L 1656 0 
L 538 0 
L 538 4863 
L 1656 4863 
L 1656 2988 
z
" transform="scale(0.015625)"/>
     </defs>
     <use xlink:href="#DejaVuSans-Bold-53"/>
     <use xlink:href="#DejaVuSans-Bold-63" x="72.021484"/>
     <use xlink:href="#DejaVuSans-Bold-6f" x="131.298828"/>
     <use xlink:href="#DejaVuSans-Bold-72" x="200"/>
     <use xlink:href="#DejaVuSans-Bold-69" x="249.316406"/>
     <use xlink:href="#DejaVuSans-Bold-6e" x="283.59375"/>
     <use xlink:href="#DejaVuSans-Bold-67" x="354.785156"/>
     <use xlink:href="#DejaVuSans-Bold-20" x="426.367188"/>
     <use xlink:href="#DejaVuSans-Bold-72" x="461.181641"/>
     <use xlink:href="#DejaVuSans-Bold-75" x="510.498047"/>
     <use xlink:href="#DejaVuSans-Bold-62" x="581.689453"/>
     <use xlink:href="#DejaVuSans-Bold-72" x="653.271484"/>
     <use xlink:href="#DejaVuSans-Bold-69" x="702.587891"/>
     <use xlink:href="#DejaVuSans-Bold-63" x="736.865234"/>
    </g>
   </g>
  </g>
  <g id="axes_3">
   <g id="matplotlib.axis_5"/>
   <g id="matplotlib.axis_6"/>
   <g id="text_14">
    <g id="patch_14">
     <path d="M 297.506287 410.980156 
L 400.365787 410.980156 
Q 405.645787 410.980156 405.645787 405.700156 
L 405.645787 353.359156 
Q 405.645787 348.079156 400.365787 348.079156 
L 297.506287 348.079156 
Q 292.226287 348.079156 292.226287 353.359156 
L 292.226287 405.700156 
Q 292.226287 410.980156 297.506287 410.980156 
z
" style="fill: #f7f7f7; stroke: #777777; stroke-width: 0.8; stroke-linejoin: miter"/>
    </g>
    <!-- GSE72267 blood -->
    <g style="fill: #262626" transform="translate(309.039037 360.386656) scale(0.096 -0.096)">
     <use xlink:href="#DejaVuSans-47"/>
     <use xlink:href="#DejaVuSans-53" x="77.490234"/>
     <use xlink:href="#DejaVuSans-45" x="140.966797"/>
     <use xlink:href="#DejaVuSans-37" x="204.150391"/>
     <use xlink:href="#DejaVuSans-32" x="267.773438"/>
     <use xlink:href="#DejaVuSans-32" x="331.396484"/>
     <use xlink:href="#DejaVuSans-36" x="395.019531"/>
     <use xlink:href="#DejaVuSans-37" x="458.642578"/>
     <use xlink:href="#DejaVuSans-20" x="522.265625"/>
     <use xlink:href="#DejaVuSans-62" x="554.052734"/>
     <use xlink:href="#DejaVuSans-6c" x="617.529297"/>
     <use xlink:href="#DejaVuSans-6f" x="645.3125"/>
     <use xlink:href="#DejaVuSans-6f" x="706.494141"/>
     <use xlink:href="#DejaVuSans-64" x="767.675781"/>
    </g>
    <!-- 40 PD vs 19 controls -->
    <g style="fill: #262626" transform="translate(299.550037 371.136556) scale(0.096 -0.096)">
     <defs>
      <path id="DejaVuSans-34" d="M 2419 4116 
L 825 1625 
L 2419 1625 
L 2419 4116 
z
M 2253 4666 
L 3047 4666 
L 3047 1625 
L 3713 1625 
L 3713 1100 
L 3047 1100 
L 3047 0 
L 2419 0 
L 2419 1100 
L 313 1100 
L 313 1709 
L 2253 4666 
z
" transform="scale(0.015625)"/>
      <path id="DejaVuSans-30" d="M 2034 4250 
Q 1547 4250 1301 3770 
Q 1056 3291 1056 2328 
Q 1056 1369 1301 889 
Q 1547 409 2034 409 
Q 2525 409 2770 889 
Q 3016 1369 3016 2328 
Q 3016 3291 2770 3770 
Q 2525 4250 2034 4250 
z
M 2034 4750 
Q 2819 4750 3233 4129 
Q 3647 3509 3647 2328 
Q 3647 1150 3233 529 
Q 2819 -91 2034 -91 
Q 1250 -91 836 529 
Q 422 1150 422 2328 
Q 422 3509 836 4129 
Q 1250 4750 2034 4750 
z
" transform="scale(0.015625)"/>
      <path id="DejaVuSans-31" d="M 794 531 
L 1825 531 
L 1825 4091 
L 703 3866 
L 703 4441 
L 1819 4666 
L 2450 4666 
L 2450 531 
L 3481 531 
L 3481 0 
L 794 0 
L 794 531 
z
" transform="scale(0.015625)"/>
      <path id="DejaVuSans-39" d="M 703 97 
L 703 672 
Q 941 559 1184 500 
Q 1428 441 1663 441 
Q 2288 441 2617 861 
Q 2947 1281 2994 2138 
Q 2813 1869 2534 1725 
Q 2256 1581 1919 1581 
Q 1219 1581 811 2004 
Q 403 2428 403 3163 
Q 403 3881 828 4315 
Q 1253 4750 1959 4750 
Q 2769 4750 3195 4129 
Q 3622 3509 3622 2328 
Q 3622 1225 3098 567 
Q 2575 -91 1691 -91 
Q 1453 -91 1209 -44 
Q 966 3 703 97 
z
M 1959 2075 
Q 2384 2075 2632 2365 
Q 2881 2656 2881 3163 
Q 2881 3666 2632 3958 
Q 2384 4250 1959 4250 
Q 1534 4250 1286 3958 
Q 1038 3666 1038 3163 
Q 1038 2656 1286 2365 
Q 1534 2075 1959 2075 
z
" transform="scale(0.015625)"/>
     </defs>
     <use xlink:href="#DejaVuSans-34"/>
     <use xlink:href="#DejaVuSans-30" x="63.623047"/>
     <use xlink:href="#DejaVuSans-20" x="127.246094"/>
     <use xlink:href="#DejaVuSans-50" x="159.033203"/>
     <use xlink:href="#DejaVuSans-44" x="219.335938"/>
     <use xlink:href="#DejaVuSans-20" x="296.337891"/>
     <use xlink:href="#DejaVuSans-76" x="328.125"/>
     <use xlink:href="#DejaVuSans-73" x="387.304688"/>
     <use xlink:href="#DejaVuSans-20" x="439.404297"/>
     <use xlink:href="#DejaVuSans-31" x="471.191406"/>
     <use xlink:href="#DejaVuSans-39" x="534.814453"/>
     <use xlink:href="#DejaVuSans-20" x="598.4375"/>
     <use xlink:href="#DejaVuSans-63" x="630.224609"/>
     <use xlink:href="#DejaVuSans-6f" x="685.205078"/>
     <use xlink:href="#DejaVuSans-6e" x="746.386719"/>
     <use xlink:href="#DejaVuSans-74" x="809.765625"/>
     <use xlink:href="#DejaVuSans-72" x="848.974609"/>
     <use xlink:href="#DejaVuSans-6f" x="887.837891"/>
     <use xlink:href="#DejaVuSans-6c" x="949.019531"/>
     <use xlink:href="#DejaVuSans-73" x="976.802734"/>
    </g>
    <!-- 22,277 probes -->
    <g style="fill: #262626" transform="translate(314.264287 381.886456) scale(0.096 -0.096)">
     <defs>
      <path id="DejaVuSans-2c" d="M 750 794 
L 1409 794 
L 1409 256 
L 897 -744 
L 494 -744 
L 750 256 
L 750 794 
z
" transform="scale(0.015625)"/>
      <path id="DejaVuSans-70" d="M 1159 525 
L 1159 -1331 
L 581 -1331 
L 581 3500 
L 1159 3500 
L 1159 2969 
Q 1341 3281 1617 3432 
Q 1894 3584 2278 3584 
Q 2916 3584 3314 3078 
Q 3713 2572 3713 1747 
Q 3713 922 3314 415 
Q 2916 -91 2278 -91 
Q 1894 -91 1617 61 
Q 1341 213 1159 525 
z
M 3116 1747 
Q 3116 2381 2855 2742 
Q 2594 3103 2138 3103 
Q 1681 3103 1420 2742 
Q 1159 2381 1159 1747 
Q 1159 1113 1420 752 
Q 1681 391 2138 391 
Q 2594 391 2855 752 
Q 3116 1113 3116 1747 
z
" transform="scale(0.015625)"/>
     </defs>
     <use xlink:href="#DejaVuSans-32"/>
     <use xlink:href="#DejaVuSans-32" x="63.623047"/>
     <use xlink:href="#DejaVuSans-2c" x="127.246094"/>
     <use xlink:href="#DejaVuSans-32" x="159.033203"/>
     <use xlink:href="#DejaVuSans-37" x="222.65625"/>
     <use xlink:href="#DejaVuSans-37" x="286.279297"/>
     <use xlink:href="#DejaVuSans-20" x="349.902344"/>
     <use xlink:href="#DejaVuSans-70" x="381.689453"/>
     <use xlink:href="#DejaVuSans-72" x="445.166016"/>
     <use xlink:href="#DejaVuSans-6f" x="484.029297"/>
     <use xlink:href="#DejaVuSans-62" x="545.210938"/>
     <use xlink:href="#DejaVuSans-65" x="608.6875"/>
     <use xlink:href="#DejaVuSans-73" x="670.210938"/>
    </g>
    <!-- 0 DEGs at FDR&lt;0.05, -->
    <g style="fill: #262626" transform="translate(297.506287 392.636356) scale(0.096 -0.096)">
     <defs>
      <path id="DejaVuSans-3c" d="M 4684 3150 
L 1459 2003 
L 4684 863 
L 4684 294 
L 678 1747 
L 678 2266 
L 4684 3719 
L 4684 3150 
z
" transform="scale(0.015625)"/>
      <path id="DejaVuSans-35" d="M 691 4666 
L 3169 4666 
L 3169 4134 
L 1269 4134 
L 1269 2991 
Q 1406 3038 1543 3061 
Q 1681 3084 1819 3084 
Q 2600 3084 3056 2656 
Q 3513 2228 3513 1497 
Q 3513 744 3044 326 
Q 2575 -91 1722 -91 
Q 1428 -91 1123 -41 
Q 819 9 494 109 
L 494 744 
Q 775 591 1075 516 
Q 1375 441 1709 441 
Q 2250 441 2565 725 
Q 2881 1009 2881 1497 
Q 2881 1984 2565 2268 
Q 2250 2553 1709 2553 
Q 1456 2553 1204 2497 
Q 953 2441 691 2322 
L 691 4666 
z
" transform="scale(0.015625)"/>
     </defs>
     <use xlink:href="#DejaVuSans-30"/>
     <use xlink:href="#DejaVuSans-20" x="63.623047"/>
     <use xlink:href="#DejaVuSans-44" x="95.410156"/>
     <use xlink:href="#DejaVuSans-45" x="172.412109"/>
     <use xlink:href="#DejaVuSans-47" x="235.595703"/>
     <use xlink:href="#DejaVuSans-73" x="313.085938"/>
     <use xlink:href="#DejaVuSans-20" x="365.185547"/>
     <use xlink:href="#DejaVuSans-61" x="396.972656"/>
     <use xlink:href="#DejaVuSans-74" x="458.251953"/>
     <use xlink:href="#DejaVuSans-20" x="497.460938"/>
     <use xlink:href="#DejaVuSans-46" x="529.248047"/>
     <use xlink:href="#DejaVuSans-44" x="586.767578"/>
     <use xlink:href="#DejaVuSans-52" x="663.769531"/>
     <use xlink:href="#DejaVuSans-3c" x="733.251953"/>
     <use xlink:href="#DejaVuSans-30" x="817.041016"/>
     <use xlink:href="#DejaVuSans-2e" x="880.664062"/>
     <use xlink:href="#DejaVuSans-30" x="912.451172"/>
     <use xlink:href="#DejaVuSans-35" x="976.074219"/>
     <use xlink:href="#DejaVuSans-2c" x="1039.697266"/>
    </g>
    <!-- |log2FC|&gt;=0.25 -->
    <g style="fill: #262626" transform="translate(310.485787 403.436656) scale(0.096 -0.096)">
     <defs>
      <path id="DejaVuSans-7c" d="M 1344 4891 
L 1344 -1509 
L 813 -1509 
L 813 4891 
L 1344 4891 
z
" transform="scale(0.015625)"/>
      <path id="DejaVuSans-3e" d="M 678 3150 
L 678 3719 
L 4684 2266 
L 4684 1747 
L 678 294 
L 678 863 
L 3897 2003 
L 678 3150 
z
" transform="scale(0.015625)"/>
      <path id="DejaVuSans-3d" d="M 678 2906 
L 4684 2906 
L 4684 2381 
L 678 2381 
L 678 2906 
z
M 678 1631 
L 4684 1631 
L 4684 1100 
L 678 1100 
L 678 1631 
z
" transform="scale(0.015625)"/>
     </defs>
     <use xlink:href="#DejaVuSans-7c"/>
     <use xlink:href="#DejaVuSans-6c" x="33.691406"/>
     <use xlink:href="#DejaVuSans-6f" x="61.474609"/>
     <use xlink:href="#DejaVuSans-67" x="122.65625"/>
     <use xlink:href="#DejaVuSans-32" x="186.132812"/>
     <use xlink:href="#DejaVuSans-46" x="249.755859"/>
     <use xlink:href="#DejaVuSans-43" x="307.275391"/>
     <use xlink:href="#DejaVuSans-7c" x="377.099609"/>
     <use xlink:href="#DejaVuSans-3e" x="410.791016"/>
     <use xlink:href="#DejaVuSans-3d" x="494.580078"/>
     <use xlink:href="#DejaVuSans-30" x="578.369141"/>
     <use xlink:href="#DejaVuSans-2e" x="641.992188"/>
     <use xlink:href="#DejaVuSans-32" x="673.779297"/>
     <use xlink:href="#DejaVuSans-35" x="737.402344"/>
    </g>
   </g>
   <g id="text_15">
    <!-- Interpret cautiously: -->
    <g style="fill: #8a4b08" transform="translate(300.635287 471.200116) scale(0.096 -0.096)">
     <defs>
      <path id="DejaVuSans-49" d="M 628 4666 
L 1259 4666 
L 1259 0 
L 628 0 
L 628 4666 
z
" transform="scale(0.015625)"/>
      <path id="DejaVuSans-3a" d="M 750 794 
L 1409 794 
L 1409 0 
L 750 0 
L 750 794 
z
M 750 3309 
L 1409 3309 
L 1409 2516 
L 750 2516 
L 750 3309 
z
" transform="scale(0.015625)"/>
     </defs>
     <use xlink:href="#DejaVuSans-49"/>
     <use xlink:href="#DejaVuSans-6e" x="29.492188"/>
     <use xlink:href="#DejaVuSans-74" x="92.871094"/>
     <use xlink:href="#DejaVuSans-65" x="132.080078"/>
     <use xlink:href="#DejaVuSans-72" x="193.603516"/>
     <use xlink:href="#DejaVuSans-70" x="234.716797"/>
     <use xlink:href="#DejaVuSans-72" x="298.193359"/>
     <use xlink:href="#DejaVuSans-65" x="337.056641"/>
     <use xlink:href="#DejaVuSans-74" x="398.580078"/>
     <use xlink:href="#DejaVuSans-20" x="437.789062"/>
     <use xlink:href="#DejaVuSans-63" x="469.576172"/>
     <use xlink:href="#DejaVuSans-61" x="524.556641"/>
     <use xlink:href="#DejaVuSans-75" x="585.835938"/>
     <use xlink:href="#DejaVuSans-74" x="649.214844"/>
     <use xlink:href="#DejaVuSans-69" x="688.423828"/>
     <use xlink:href="#DejaVuSans-6f" x="716.207031"/>
     <use xlink:href="#DejaVuSans-75" x="777.388672"/>
     <use xlink:href="#DejaVuSans-73" x="840.767578"/>
     <use xlink:href="#DejaVuSans-6c" x="892.867188"/>
     <use xlink:href="#DejaVuSans-79" x="920.650391"/>
     <use xlink:href="#DejaVuSans-3a" x="972.580078"/>
    </g>
    <!-- single-dataset signal -->
    <g style="fill: #8a4b08" transform="translate(299.122537 481.950016) scale(0.096 -0.096)">
     <use xlink:href="#DejaVuSans-73"/>
     <use xlink:href="#DejaVuSans-69" x="52.099609"/>
     <use xlink:href="#DejaVuSans-6e" x="79.882812"/>
     <use xlink:href="#DejaVuSans-67" x="143.261719"/>
     <use xlink:href="#DejaVuSans-6c" x="206.738281"/>
     <use xlink:href="#DejaVuSans-65" x="234.521484"/>
     <use xlink:href="#DejaVuSans-2d" x="296.044922"/>
     <use xlink:href="#DejaVuSans-64" x="332.128906"/>
     <use xlink:href="#DejaVuSans-61" x="395.605469"/>
     <use xlink:href="#DejaVuSans-74" x="456.884766"/>
     <use xlink:href="#DejaVuSans-61" x="496.09375"/>
     <use xlink:href="#DejaVuSans-73" x="557.373047"/>
     <use xlink:href="#DejaVuSans-65" x="609.472656"/>
     <use xlink:href="#DejaVuSans-74" x="670.996094"/>
     <use xlink:href="#DejaVuSans-20" x="710.205078"/>
     <use xlink:href="#DejaVuSans-73" x="741.992188"/>
     <use xlink:href="#DejaVuSans-69" x="794.091797"/>
     <use xlink:href="#DejaVuSans-67" x="821.875"/>
     <use xlink:href="#DejaVuSans-6e" x="885.351562"/>
     <use xlink:href="#DejaVuSans-61" x="948.730469"/>
     <use xlink:href="#DejaVuSans-6c" x="1010.009766"/>
    </g>
   </g>
   <g id="text_16">
    <!-- Executed omics validation -->
    <g style="fill: #262626" transform="translate(260.364787 276.560639) scale(0.12 -0.12)">
     <defs>
      <path id="DejaVuSans-Bold-78" d="M 1422 1791 
L 159 3500 
L 1344 3500 
L 2059 2463 
L 2784 3500 
L 3969 3500 
L 2706 1797 
L 4031 0 
L 2847 0 
L 2059 1106 
L 1281 0 
L 97 0 
L 1422 1791 
z
" transform="scale(0.015625)"/>
      <path id="DejaVuSans-Bold-74" d="M 1759 4494 
L 1759 3500 
L 2913 3500 
L 2913 2700 
L 1759 2700 
L 1759 1216 
Q 1759 972 1856 886 
Q 1953 800 2241 800 
L 2816 800 
L 2816 0 
L 1856 0 
Q 1194 0 917 276 
Q 641 553 641 1216 
L 641 2700 
L 84 2700 
L 84 3500 
L 641 3500 
L 641 4494 
L 1759 4494 
z
" transform="scale(0.015625)"/>
      <path id="DejaVuSans-Bold-6d" d="M 3781 2919 
Q 3994 3244 4286 3414 
Q 4578 3584 4928 3584 
Q 5531 3584 5847 3212 
Q 6163 2841 6163 2131 
L 6163 0 
L 5038 0 
L 5038 1825 
Q 5041 1866 5042 1909 
Q 5044 1953 5044 2034 
Q 5044 2406 4934 2573 
Q 4825 2741 4581 2741 
Q 4263 2741 4089 2478 
Q 3916 2216 3909 1719 
L 3909 0 
L 2784 0 
L 2784 1825 
Q 2784 2406 2684 2573 
Q 2584 2741 2328 2741 
Q 2006 2741 1831 2477 
Q 1656 2213 1656 1722 
L 1656 0 
L 531 0 
L 531 3500 
L 1656 3500 
L 1656 2988 
Q 1863 3284 2130 3434 
Q 2397 3584 2719 3584 
Q 3081 3584 3359 3409 
Q 3638 3234 3781 2919 
z
" transform="scale(0.015625)"/>
      <path id="DejaVuSans-Bold-61" d="M 2106 1575 
Q 1756 1575 1579 1456 
Q 1403 1338 1403 1106 
Q 1403 894 1545 773 
Q 1688 653 1941 653 
Q 2256 653 2472 879 
Q 2688 1106 2688 1447 
L 2688 1575 
L 2106 1575 
z
M 3816 1997 
L 3816 0 
L 2688 0 
L 2688 519 
Q 2463 200 2181 54 
Q 1900 -91 1497 -91 
Q 953 -91 614 226 
Q 275 544 275 1050 
Q 275 1666 698 1953 
Q 1122 2241 2028 2241 
L 2688 2241 
L 2688 2328 
Q 2688 2594 2478 2717 
Q 2269 2841 1825 2841 
Q 1466 2841 1156 2769 
Q 847 2697 581 2553 
L 581 3406 
Q 941 3494 1303 3539 
Q 1666 3584 2028 3584 
Q 2975 3584 3395 3211 
Q 3816 2838 3816 1997 
z
" transform="scale(0.015625)"/>
      <path id="DejaVuSans-Bold-6c" d="M 538 4863 
L 1656 4863 
L 1656 0 
L 538 0 
L 538 4863 
z
" transform="scale(0.015625)"/>
     </defs>
     <use xlink:href="#DejaVuSans-Bold-45"/>
     <use xlink:href="#DejaVuSans-Bold-78" x="68.310547"/>
     <use xlink:href="#DejaVuSans-Bold-65" x="132.8125"/>
     <use xlink:href="#DejaVuSans-Bold-63" x="200.634766"/>
     <use xlink:href="#DejaVuSans-Bold-75" x="259.912109"/>
     <use xlink:href="#DejaVuSans-Bold-74" x="331.103516"/>
     <use xlink:href="#DejaVuSans-Bold-65" x="378.90625"/>
     <use xlink:href="#DejaVuSans-Bold-64" x="446.728516"/>
     <use xlink:href="#DejaVuSans-Bold-20" x="518.310547"/>
     <use xlink:href="#DejaVuSans-Bold-6f" x="553.125"/>
     <use xlink:href="#DejaVuSans-Bold-6d" x="621.826172"/>
     <use xlink:href="#DejaVuSans-Bold-69" x="726.025391"/>
     <use xlink:href="#DejaVuSans-Bold-63" x="760.302734"/>
     <use xlink:href="#DejaVuSans-Bold-73" x="819.580078"/>
     <use xlink:href="#DejaVuSans-Bold-20" x="879.101562"/>
     <use xlink:href="#DejaVuSans-Bold-76" x="913.916016"/>
     <use xlink:href="#DejaVuSans-Bold-61" x="979.101562"/>
     <use xlink:href="#DejaVuSans-Bold-6c" x="1046.582031"/>
     <use xlink:href="#DejaVuSans-Bold-69" x="1080.859375"/>
     <use xlink:href="#DejaVuSans-Bold-64" x="1115.136719"/>
     <use xlink:href="#DejaVuSans-Bold-61" x="1186.71875"/>
     <use xlink:href="#DejaVuSans-Bold-74" x="1254.199219"/>
     <use xlink:href="#DejaVuSans-Bold-69" x="1302.001953"/>
     <use xlink:href="#DejaVuSans-Bold-6f" x="1336.279297"/>
     <use xlink:href="#DejaVuSans-Bold-6e" x="1404.980469"/>
    </g>
   </g>
  </g>
  <g id="axes_4">
   <g id="patch_15">
    <path d="M 470.189022 513.121395 
L 710.715988 513.121395 
L 710.715988 42.95298 
L 470.189022 42.95298 
z
" style="fill: #ffffff"/>
   </g>
   <g id="matplotlib.axis_7">
    <g id="text_17">
     <!-- Priority score -->
     <g style="fill: #262626" transform="translate(557.635317 524.719833) scale(0.1 -0.1)">
      <use xlink:href="#DejaVuSans-50"/>
      <use xlink:href="#DejaVuSans-72" x="58.552734"/>
      <use xlink:href="#DejaVuSans-69" x="99.666016"/>
      <use xlink:href="#DejaVuSans-6f" x="127.449219"/>
      <use xlink:href="#DejaVuSans-72" x="188.630859"/>
      <use xlink:href="#DejaVuSans-69" x="229.744141"/>
      <use xlink:href="#DejaVuSans-74" x="257.527344"/>
      <use xlink:href="#DejaVuSans-79" x="296.736328"/>
      <use xlink:href="#DejaVuSans-20" x="355.916016"/>
      <use xlink:href="#DejaVuSans-73" x="387.703125"/>
      <use xlink:href="#DejaVuSans-63" x="439.802734"/>
      <use xlink:href="#DejaVuSans-6f" x="494.783203"/>
      <use xlink:href="#DejaVuSans-72" x="555.964844"/>
      <use xlink:href="#DejaVuSans-65" x="594.828125"/>
     </g>
    </g>
   </g>
   <g id="matplotlib.axis_8"/>
   <g id="patch_16">
    <path d="M 470.189022 491.750103 
L 616.910471 491.750103 
L 616.910471 441.464711 
L 470.189022 441.464711 
z
" clip-path="url(#p4810196ad7)" style="fill: #2e75b6; stroke: #ffffff; stroke-width: 0.8; stroke-linejoin: miter"/>
   </g>
   <g id="patch_17">
    <path d="M 470.189022 428.893363 
L 619.315741 428.893363 
L 619.315741 378.607971 
L 470.189022 378.607971 
z
" clip-path="url(#p4810196ad7)" style="fill: #2e75b6; stroke: #ffffff; stroke-width: 0.8; stroke-linejoin: miter"/>
   </g>
   <g id="patch_18">
    <path d="M 470.189022 366.036623 
L 624.12628 366.036623 
L 624.12628 315.751231 
L 470.189022 315.751231 
z
" clip-path="url(#p4810196ad7)" style="fill: #2e75b6; stroke: #ffffff; stroke-width: 0.8; stroke-linejoin: miter"/>
   </g>
   <g id="patch_19">
    <path d="M 470.189022 303.179883 
L 628.936819 303.179883 
L 628.936819 252.894492 
L 470.189022 252.894492 
z
" clip-path="url(#p4810196ad7)" style="fill: #2e75b6; stroke: #ffffff; stroke-width: 0.8; stroke-linejoin: miter"/>
   </g>
   <g id="patch_20">
    <path d="M 470.189022 240.323144 
L 643.368437 240.323144 
L 643.368437 190.037752 
L 470.189022 190.037752 
z
" clip-path="url(#p4810196ad7)" style="fill: #2e75b6; stroke: #ffffff; stroke-width: 0.8; stroke-linejoin: miter"/>
   </g>
   <g id="patch_21">
    <path d="M 470.189022 177.466404 
L 667.421134 177.466404 
L 667.421134 127.181012 
L 470.189022 127.181012 
z
" clip-path="url(#p4810196ad7)" style="fill: #70ad47; stroke: #ffffff; stroke-width: 0.8; stroke-linejoin: miter"/>
   </g>
   <g id="patch_22">
    <path d="M 470.189022 114.609664 
L 669.826403 114.609664 
L 669.826403 64.324272 
L 470.189022 64.324272 
z
" clip-path="url(#p4810196ad7)" style="fill: #70ad47; stroke: #ffffff; stroke-width: 0.8; stroke-linejoin: miter"/>
   </g>
   <g id="patch_23">
    <path d="M 470.189022 513.121395 
L 470.189022 42.95298 
" style="fill: none; stroke: #cccccc; stroke-linejoin: miter; stroke-linecap: square"/>
   </g>
   <g id="patch_24">
    <path d="M 710.715988 513.121395 
L 710.715988 42.95298 
" style="fill: none; stroke: #cccccc; stroke-linejoin: miter; stroke-linecap: square"/>
   </g>
   <g id="patch_25">
    <path d="M 470.189022 513.121395 
L 710.715988 513.121395 
" style="fill: none; stroke: #cccccc; stroke-linejoin: miter; stroke-linecap: square"/>
   </g>
   <g id="patch_26">
    <path d="M 470.189022 42.95298 
L 710.715988 42.95298 
" style="fill: none; stroke: #cccccc; stroke-linejoin: miter; stroke-linecap: square"/>
   </g>
   <g id="text_18">
    <!-- Prioritised intervention points -->
    <g style="fill: #262626" transform="translate(487.885317 36.95298) scale(0.12 -0.12)">
     <defs>
      <path id="DejaVuSans-Bold-50" d="M 588 4666 
L 2584 4666 
Q 3475 4666 3951 4270 
Q 4428 3875 4428 3144 
Q 4428 2409 3951 2014 
Q 3475 1619 2584 1619 
L 1791 1619 
L 1791 0 
L 588 0 
L 588 4666 
z
M 1791 3794 
L 1791 2491 
L 2456 2491 
Q 2806 2491 2997 2661 
Q 3188 2831 3188 3144 
Q 3188 3456 2997 3625 
Q 2806 3794 2456 3794 
L 1791 3794 
z
" transform="scale(0.015625)"/>
      <path id="DejaVuSans-Bold-70" d="M 1656 506 
L 1656 -1331 
L 538 -1331 
L 538 3500 
L 1656 3500 
L 1656 2988 
Q 1888 3294 2169 3439 
Q 2450 3584 2816 3584 
Q 3463 3584 3878 3070 
Q 4294 2556 4294 1747 
Q 4294 938 3878 423 
Q 3463 -91 2816 -91 
Q 2450 -91 2169 54 
Q 1888 200 1656 506 
z
M 2400 2772 
Q 2041 2772 1848 2508 
Q 1656 2244 1656 1747 
Q 1656 1250 1848 986 
Q 2041 722 2400 722 
Q 2759 722 2948 984 
Q 3138 1247 3138 1747 
Q 3138 2247 2948 2509 
Q 2759 2772 2400 2772 
z
" transform="scale(0.015625)"/>
     </defs>
     <use xlink:href="#DejaVuSans-Bold-50"/>
     <use xlink:href="#DejaVuSans-Bold-72" x="73.291016"/>
     <use xlink:href="#DejaVuSans-Bold-69" x="122.607422"/>
     <use xlink:href="#DejaVuSans-Bold-6f" x="156.884766"/>
     <use xlink:href="#DejaVuSans-Bold-72" x="225.585938"/>
     <use xlink:href="#DejaVuSans-Bold-69" x="274.902344"/>
     <use xlink:href="#DejaVuSans-Bold-74" x="309.179688"/>
     <use xlink:href="#DejaVuSans-Bold-69" x="356.982422"/>
     <use xlink:href="#DejaVuSans-Bold-73" x="391.259766"/>
     <use xlink:href="#DejaVuSans-Bold-65" x="450.78125"/>
     <use xlink:href="#DejaVuSans-Bold-64" x="518.603516"/>
     <use xlink:href="#DejaVuSans-Bold-20" x="590.185547"/>
     <use xlink:href="#DejaVuSans-Bold-69" x="625"/>
     <use xlink:href="#DejaVuSans-Bold-6e" x="659.277344"/>
     <use xlink:href="#DejaVuSans-Bold-74" x="730.46875"/>
     <use xlink:href="#DejaVuSans-Bold-65" x="778.271484"/>
     <use xlink:href="#DejaVuSans-Bold-72" x="846.09375"/>
     <use xlink:href="#DejaVuSans-Bold-76" x="895.410156"/>
     <use xlink:href="#DejaVuSans-Bold-65" x="960.595703"/>
     <use xlink:href="#DejaVuSans-Bold-6e" x="1028.417969"/>
     <use xlink:href="#DejaVuSans-Bold-74" x="1099.609375"/>
     <use xlink:href="#DejaVuSans-Bold-69" x="1147.412109"/>
     <use xlink:href="#DejaVuSans-Bold-6f" x="1181.689453"/>
     <use xlink:href="#DejaVuSans-Bold-6e" x="1250.390625"/>
     <use xlink:href="#DejaVuSans-Bold-20" x="1321.582031"/>
     <use xlink:href="#DejaVuSans-Bold-70" x="1356.396484"/>
     <use xlink:href="#DejaVuSans-Bold-6f" x="1427.978516"/>
     <use xlink:href="#DejaVuSans-Bold-69" x="1496.679688"/>
     <use xlink:href="#DejaVuSans-Bold-6e" x="1530.957031"/>
     <use xlink:href="#DejaVuSans-Bold-74" x="1602.148438"/>
     <use xlink:href="#DejaVuSans-Bold-73" x="1649.951172"/>
    </g>
   </g>
  </g>
  <g id="axes_5">
   <g id="matplotlib.axis_9"/>
   <g id="matplotlib.axis_10"/>
   <g id="text_19">
    <!-- Individual -->
    <g style="fill: #1f4e79" transform="translate(800.161994 120.828926) scale(0.096 -0.096)">
     <defs>
      <path id="DejaVuSans-Bold-49" d="M 588 4666 
L 1791 4666 
L 1791 0 
L 588 0 
L 588 4666 
z
" transform="scale(0.015625)"/>
     </defs>
     <use xlink:href="#DejaVuSans-Bold-49"/>
     <use xlink:href="#DejaVuSans-Bold-6e" x="37.207031"/>
     <use xlink:href="#DejaVuSans-Bold-64" x="108.398438"/>
     <use xlink:href="#DejaVuSans-Bold-69" x="179.980469"/>
     <use xlink:href="#DejaVuSans-Bold-76" x="214.257812"/>
     <use xlink:href="#DejaVuSans-Bold-69" x="279.443359"/>
     <use xlink:href="#DejaVuSans-Bold-64" x="313.720703"/>
     <use xlink:href="#DejaVuSans-Bold-75" x="385.302734"/>
     <use xlink:href="#DejaVuSans-Bold-61" x="456.494141"/>
     <use xlink:href="#DejaVuSans-Bold-6c" x="523.974609"/>
    </g>
   </g>
   <g id="text_20">
    <g id="patch_27">
     <path d="M 756.252494 179.250484 
L 897.663494 179.250484 
Q 901.023494 179.250484 901.023494 175.890484 
L 901.023494 145.099684 
Q 901.023494 141.739684 897.663494 141.739684 
L 756.252494 141.739684 
Q 752.892494 141.739684 752.892494 145.099684 
L 752.892494 175.890484 
Q 752.892494 179.250484 756.252494 179.250484 
z
" style="fill: #fff2cc; stroke: #c55a11; stroke-width: 0.8; stroke-linejoin: miter"/>
    </g>
    <!-- exercise, exposure reduction, -->
    <g style="fill: #262626" transform="translate(756.252494 152.394184) scale(0.096 -0.096)">
     <defs>
      <path id="DejaVuSans-78" d="M 3513 3500 
L 2247 1797 
L 3578 0 
L 2900 0 
L 1881 1375 
L 863 0 
L 184 0 
L 1544 1831 
L 300 3500 
L 978 3500 
L 1906 2253 
L 2834 3500 
L 3513 3500 
z
" transform="scale(0.015625)"/>
     </defs>
     <use xlink:href="#DejaVuSans-65"/>
     <use xlink:href="#DejaVuSans-78" x="59.773438"/>
     <use xlink:href="#DejaVuSans-65" x="115.828125"/>
     <use xlink:href="#DejaVuSans-72" x="177.351562"/>
     <use xlink:href="#DejaVuSans-63" x="216.214844"/>
     <use xlink:href="#DejaVuSans-69" x="271.195312"/>
     <use xlink:href="#DejaVuSans-73" x="298.978516"/>
     <use xlink:href="#DejaVuSans-65" x="351.078125"/>
     <use xlink:href="#DejaVuSans-2c" x="412.601562"/>
     <use xlink:href="#DejaVuSans-20" x="444.388672"/>
     <use xlink:href="#DejaVuSans-65" x="476.175781"/>
     <use xlink:href="#DejaVuSans-78" x="535.949219"/>
     <use xlink:href="#DejaVuSans-70" x="595.128906"/>
     <use xlink:href="#DejaVuSans-6f" x="658.605469"/>
     <use xlink:href="#DejaVuSans-73" x="719.787109"/>
     <use xlink:href="#DejaVuSans-75" x="771.886719"/>
     <use xlink:href="#DejaVuSans-72" x="835.265625"/>
     <use xlink:href="#DejaVuSans-65" x="874.128906"/>
     <use xlink:href="#DejaVuSans-20" x="935.652344"/>
     <use xlink:href="#DejaVuSans-72" x="967.439453"/>
     <use xlink:href="#DejaVuSans-65" x="1006.302734"/>
     <use xlink:href="#DejaVuSans-64" x="1067.826172"/>
     <use xlink:href="#DejaVuSans-75" x="1131.302734"/>
     <use xlink:href="#DejaVuSans-63" x="1194.681641"/>
     <use xlink:href="#DejaVuSans-74" x="1249.662109"/>
     <use xlink:href="#DejaVuSans-69" x="1288.871094"/>
     <use xlink:href="#DejaVuSans-6f" x="1316.654297"/>
     <use xlink:href="#DejaVuSans-6e" x="1377.835938"/>
     <use xlink:href="#DejaVuSans-2c" x="1441.214844"/>
    </g>
    <!-- head-injury prevention, -->
    <g style="fill: #262626" transform="translate(770.728994 163.144084) scale(0.096 -0.096)">
     <defs>
      <path id="DejaVuSans-6a" d="M 603 3500 
L 1178 3500 
L 1178 -63 
Q 1178 -731 923 -1031 
Q 669 -1331 103 -1331 
L -116 -1331 
L -116 -844 
L 38 -844 
Q 366 -844 484 -692 
Q 603 -541 603 -63 
L 603 3500 
z
M 603 4863 
L 1178 4863 
L 1178 4134 
L 603 4134 
L 603 4863 
z
" transform="scale(0.015625)"/>
     </defs>
     <use xlink:href="#DejaVuSans-68"/>
     <use xlink:href="#DejaVuSans-65" x="63.378906"/>
     <use xlink:href="#DejaVuSans-61" x="124.902344"/>
     <use xlink:href="#DejaVuSans-64" x="186.181641"/>
     <use xlink:href="#DejaVuSans-2d" x="249.658203"/>
     <use xlink:href="#DejaVuSans-69" x="285.742188"/>
     <use xlink:href="#DejaVuSans-6e" x="313.525391"/>
     <use xlink:href="#DejaVuSans-6a" x="376.904297"/>
     <use xlink:href="#DejaVuSans-75" x="404.6875"/>
     <use xlink:href="#DejaVuSans-72" x="468.066406"/>
     <use xlink:href="#DejaVuSans-79" x="509.179688"/>
     <use xlink:href="#DejaVuSans-20" x="568.359375"/>
     <use xlink:href="#DejaVuSans-70" x="600.146484"/>
     <use xlink:href="#DejaVuSans-72" x="663.623047"/>
     <use xlink:href="#DejaVuSans-65" x="702.486328"/>
     <use xlink:href="#DejaVuSans-76" x="764.009766"/>
     <use xlink:href="#DejaVuSans-65" x="823.189453"/>
     <use xlink:href="#DejaVuSans-6e" x="884.712891"/>
     <use xlink:href="#DejaVuSans-74" x="948.091797"/>
     <use xlink:href="#DejaVuSans-69" x="987.300781"/>
     <use xlink:href="#DejaVuSans-6f" x="1015.083984"/>
     <use xlink:href="#DejaVuSans-6e" x="1076.265625"/>
     <use xlink:href="#DejaVuSans-2c" x="1139.644531"/>
    </g>
    <!-- metabolic health -->
    <g style="fill: #262626" transform="translate(786.495494 173.893984) scale(0.096 -0.096)">
     <use xlink:href="#DejaVuSans-6d"/>
     <use xlink:href="#DejaVuSans-65" x="97.412109"/>
     <use xlink:href="#DejaVuSans-74" x="158.935547"/>
     <use xlink:href="#DejaVuSans-61" x="198.144531"/>
     <use xlink:href="#DejaVuSans-62" x="259.423828"/>
     <use xlink:href="#DejaVuSans-6f" x="322.900391"/>
     <use xlink:href="#DejaVuSans-6c" x="384.082031"/>
     <use xlink:href="#DejaVuSans-69" x="411.865234"/>
     <use xlink:href="#DejaVuSans-63" x="439.648438"/>
     <use xlink:href="#DejaVuSans-20" x="494.628906"/>
     <use xlink:href="#DejaVuSans-68" x="526.416016"/>
     <use xlink:href="#DejaVuSans-65" x="589.794922"/>
     <use xlink:href="#DejaVuSans-61" x="651.318359"/>
     <use xlink:href="#DejaVuSans-6c" x="712.597656"/>
     <use xlink:href="#DejaVuSans-74" x="740.380859"/>
     <use xlink:href="#DejaVuSans-68" x="779.589844"/>
    </g>
   </g>
   <g id="text_21">
    <!-- Clinical trials -->
    <g style="fill: #1f4e79" transform="translate(791.632244 238.37103) scale(0.096 -0.096)">
     <defs>
      <path id="DejaVuSans-Bold-43" d="M 4288 256 
Q 3956 84 3597 -3 
Q 3238 -91 2847 -91 
Q 1681 -91 1000 561 
Q 319 1213 319 2328 
Q 319 3447 1000 4098 
Q 1681 4750 2847 4750 
Q 3238 4750 3597 4662 
Q 3956 4575 4288 4403 
L 4288 3438 
Q 3953 3666 3628 3772 
Q 3303 3878 2944 3878 
Q 2300 3878 1931 3465 
Q 1563 3053 1563 2328 
Q 1563 1606 1931 1193 
Q 2300 781 2944 781 
Q 3303 781 3628 887 
Q 3953 994 4288 1222 
L 4288 256 
z
" transform="scale(0.015625)"/>
     </defs>
     <use xlink:href="#DejaVuSans-Bold-43"/>
     <use xlink:href="#DejaVuSans-Bold-6c" x="73.388672"/>
     <use xlink:href="#DejaVuSans-Bold-69" x="107.666016"/>
     <use xlink:href="#DejaVuSans-Bold-6e" x="141.943359"/>
     <use xlink:href="#DejaVuSans-Bold-69" x="213.134766"/>
     <use xlink:href="#DejaVuSans-Bold-63" x="247.412109"/>
     <use xlink:href="#DejaVuSans-Bold-61" x="306.689453"/>
     <use xlink:href="#DejaVuSans-Bold-6c" x="374.169922"/>
     <use xlink:href="#DejaVuSans-Bold-20" x="408.447266"/>
     <use xlink:href="#DejaVuSans-Bold-74" x="443.261719"/>
     <use xlink:href="#DejaVuSans-Bold-72" x="491.064453"/>
     <use xlink:href="#DejaVuSans-Bold-69" x="540.380859"/>
     <use xlink:href="#DejaVuSans-Bold-61" x="574.658203"/>
     <use xlink:href="#DejaVuSans-Bold-6c" x="642.138672"/>
     <use xlink:href="#DejaVuSans-Bold-73" x="676.416016"/>
    </g>
   </g>
   <g id="text_22">
    <g id="patch_28">
     <path d="M 789.193244 296.792588 
L 864.722744 296.792588 
Q 868.082744 296.792588 868.082744 293.432588 
L 868.082744 262.641788 
Q 868.082744 259.281788 864.722744 259.281788 
L 789.193244 259.281788 
Q 785.833244 259.281788 785.833244 262.641788 
L 785.833244 293.432588 
Q 785.833244 296.792588 789.193244 296.792588 
z
" style="fill: #fff2cc; stroke: #c55a11; stroke-width: 0.8; stroke-linejoin: miter"/>
    </g>
    <!-- GLP-1, LRRK2, -->
    <g style="fill: #262626" transform="translate(792.868994 269.936287) scale(0.096 -0.096)">
     <defs>
      <path id="DejaVuSans-4b" d="M 628 4666 
L 1259 4666 
L 1259 2694 
L 3353 4666 
L 4166 4666 
L 1850 2491 
L 4331 0 
L 3500 0 
L 1259 2247 
L 1259 0 
L 628 0 
L 628 4666 
z
" transform="scale(0.015625)"/>
     </defs>
     <use xlink:href="#DejaVuSans-47"/>
     <use xlink:href="#DejaVuSans-4c" x="77.490234"/>
     <use xlink:href="#DejaVuSans-50" x="133.203125"/>
     <use xlink:href="#DejaVuSans-2d" x="191.255859"/>
     <use xlink:href="#DejaVuSans-31" x="227.339844"/>
     <use xlink:href="#DejaVuSans-2c" x="290.962891"/>
     <use xlink:href="#DejaVuSans-20" x="322.75"/>
     <use xlink:href="#DejaVuSans-4c" x="354.537109"/>
     <use xlink:href="#DejaVuSans-52" x="410.25"/>
     <use xlink:href="#DejaVuSans-52" x="479.732422"/>
     <use xlink:href="#DejaVuSans-4b" x="549.214844"/>
     <use xlink:href="#DejaVuSans-32" x="614.791016"/>
     <use xlink:href="#DejaVuSans-2c" x="678.414062"/>
    </g>
    <!-- GBA/lysosomal, -->
    <g style="fill: #262626" transform="translate(789.519494 280.686188) scale(0.096 -0.096)">
     <defs>
      <path id="DejaVuSans-42" d="M 1259 2228 
L 1259 519 
L 2272 519 
Q 2781 519 3026 730 
Q 3272 941 3272 1375 
Q 3272 1813 3026 2020 
Q 2781 2228 2272 2228 
L 1259 2228 
z
M 1259 4147 
L 1259 2741 
L 2194 2741 
Q 2656 2741 2882 2914 
Q 3109 3088 3109 3444 
Q 3109 3797 2882 3972 
Q 2656 4147 2194 4147 
L 1259 4147 
z
M 628 4666 
L 2241 4666 
Q 2963 4666 3353 4366 
Q 3744 4066 3744 3513 
Q 3744 3084 3544 2831 
Q 3344 2578 2956 2516 
Q 3422 2416 3680 2098 
Q 3938 1781 3938 1306 
Q 3938 681 3513 340 
Q 3088 0 2303 0 
L 628 0 
L 628 4666 
z
" transform="scale(0.015625)"/>
      <path id="DejaVuSans-41" d="M 2188 4044 
L 1331 1722 
L 3047 1722 
L 2188 4044 
z
M 1831 4666 
L 2547 4666 
L 4325 0 
L 3669 0 
L 3244 1197 
L 1141 1197 
L 716 0 
L 50 0 
L 1831 4666 
z
" transform="scale(0.015625)"/>
      <path id="DejaVuSans-2f" d="M 1625 4666 
L 2156 4666 
L 531 -594 
L 0 -594 
L 1625 4666 
z
" transform="scale(0.015625)"/>
     </defs>
     <use xlink:href="#DejaVuSans-47"/>
     <use xlink:href="#DejaVuSans-42" x="77.490234"/>
     <use xlink:href="#DejaVuSans-41" x="146.09375"/>
     <use xlink:href="#DejaVuSans-2f" x="214.501953"/>
     <use xlink:href="#DejaVuSans-6c" x="248.193359"/>
     <use xlink:href="#DejaVuSans-79" x="275.976562"/>
     <use xlink:href="#DejaVuSans-73" x="335.15625"/>
     <use xlink:href="#DejaVuSans-6f" x="387.255859"/>
     <use xlink:href="#DejaVuSans-73" x="448.4375"/>
     <use xlink:href="#DejaVuSans-6f" x="500.537109"/>
     <use xlink:href="#DejaVuSans-6d" x="561.71875"/>
     <use xlink:href="#DejaVuSans-61" x="659.130859"/>
     <use xlink:href="#DejaVuSans-6c" x="720.410156"/>
     <use xlink:href="#DejaVuSans-2c" x="748.193359"/>
    </g>
    <!-- alpha-synuclein -->
    <g style="fill: #262626" transform="translate(789.193244 291.436087) scale(0.096 -0.096)">
     <use xlink:href="#DejaVuSans-61"/>
     <use xlink:href="#DejaVuSans-6c" x="61.279297"/>
     <use xlink:href="#DejaVuSans-70" x="89.0625"/>
     <use xlink:href="#DejaVuSans-68" x="152.539062"/>
     <use xlink:href="#DejaVuSans-61" x="215.917969"/>
     <use xlink:href="#DejaVuSans-2d" x="277.197266"/>
     <use xlink:href="#DejaVuSans-73" x="313.28125"/>
     <use xlink:href="#DejaVuSans-79" x="365.380859"/>
     <use xlink:href="#DejaVuSans-6e" x="424.560547"/>
     <use xlink:href="#DejaVuSans-75" x="487.939453"/>
     <use xlink:href="#DejaVuSans-63" x="551.318359"/>
     <use xlink:href="#DejaVuSans-6c" x="606.298828"/>
     <use xlink:href="#DejaVuSans-65" x="634.082031"/>
     <use xlink:href="#DejaVuSans-69" x="695.605469"/>
     <use xlink:href="#DejaVuSans-6e" x="723.388672"/>
    </g>
   </g>
   <g id="text_23">
    <!-- Public health -->
    <g style="fill: #1f4e79" transform="translate(791.510744 355.913134) scale(0.096 -0.096)">
     <defs>
      <path id="DejaVuSans-Bold-68" d="M 4056 2131 
L 4056 0 
L 2931 0 
L 2931 347 
L 2931 1625 
Q 2931 2084 2911 2256 
Q 2891 2428 2841 2509 
Q 2775 2619 2662 2680 
Q 2550 2741 2406 2741 
Q 2056 2741 1856 2470 
Q 1656 2200 1656 1722 
L 1656 0 
L 538 0 
L 538 4863 
L 1656 4863 
L 1656 2988 
Q 1909 3294 2193 3439 
Q 2478 3584 2822 3584 
Q 3428 3584 3742 3212 
Q 4056 2841 4056 2131 
z
" transform="scale(0.015625)"/>
     </defs>
     <use xlink:href="#DejaVuSans-Bold-50"/>
     <use xlink:href="#DejaVuSans-Bold-75" x="73.291016"/>
     <use xlink:href="#DejaVuSans-Bold-62" x="144.482422"/>
     <use xlink:href="#DejaVuSans-Bold-6c" x="216.064453"/>
     <use xlink:href="#DejaVuSans-Bold-69" x="250.341797"/>
     <use xlink:href="#DejaVuSans-Bold-63" x="284.619141"/>
     <use xlink:href="#DejaVuSans-Bold-20" x="343.896484"/>
     <use xlink:href="#DejaVuSans-Bold-68" x="378.710938"/>
     <use xlink:href="#DejaVuSans-Bold-65" x="449.902344"/>
     <use xlink:href="#DejaVuSans-Bold-61" x="517.724609"/>
     <use xlink:href="#DejaVuSans-Bold-6c" x="585.205078"/>
     <use xlink:href="#DejaVuSans-Bold-74" x="619.482422"/>
     <use xlink:href="#DejaVuSans-Bold-68" x="667.285156"/>
    </g>
   </g>
   <g id="text_24">
    <g id="patch_29">
     <path d="M 773.329994 414.334691 
L 880.585994 414.334691 
Q 883.945994 414.334691 883.945994 410.974691 
L 883.945994 380.183891 
Q 883.945994 376.823891 880.585994 376.823891 
L 773.329994 376.823891 
Q 769.969994 376.823891 769.969994 380.183891 
L 769.969994 410.974691 
Q 769.969994 414.334691 773.329994 414.334691 
z
" style="fill: #fff2cc; stroke: #c55a11; stroke-width: 0.8; stroke-linejoin: miter"/>
    </g>
    <!-- pesticide surveillance, -->
    <g style="fill: #262626" transform="translate(773.329994 387.478391) scale(0.096 -0.096)">
     <use xlink:href="#DejaVuSans-70"/>
     <use xlink:href="#DejaVuSans-65" x="63.476562"/>
     <use xlink:href="#DejaVuSans-73" x="125"/>
     <use xlink:href="#DejaVuSans-74" x="177.099609"/>
     <use xlink:href="#DejaVuSans-69" x="216.308594"/>
     <use xlink:href="#DejaVuSans-63" x="244.091797"/>
     <use xlink:href="#DejaVuSans-69" x="299.072266"/>
     <use xlink:href="#DejaVuSans-64" x="326.855469"/>
     <use xlink:href="#DejaVuSans-65" x="390.332031"/>
     <use xlink:href="#DejaVuSans-20" x="451.855469"/>
     <use xlink:href="#DejaVuSans-73" x="483.642578"/>
     <use xlink:href="#DejaVuSans-75" x="535.742188"/>
     <use xlink:href="#DejaVuSans-72" x="599.121094"/>
     <use xlink:href="#DejaVuSans-76" x="640.234375"/>
     <use xlink:href="#DejaVuSans-65" x="699.414062"/>
     <use xlink:href="#DejaVuSans-69" x="760.9375"/>
     <use xlink:href="#DejaVuSans-6c" x="788.720703"/>
     <use xlink:href="#DejaVuSans-6c" x="816.503906"/>
     <use xlink:href="#DejaVuSans-61" x="844.287109"/>
     <use xlink:href="#DejaVuSans-6e" x="905.566406"/>
     <use xlink:href="#DejaVuSans-63" x="968.945312"/>
     <use xlink:href="#DejaVuSans-65" x="1023.925781"/>
     <use xlink:href="#DejaVuSans-2c" x="1085.449219"/>
    </g>
    <!-- air quality, -->
    <g style="fill: #262626" transform="translate(801.238244 398.228291) scale(0.096 -0.096)">
     <defs>
      <path id="DejaVuSans-71" d="M 947 1747 
Q 947 1113 1208 752 
Q 1469 391 1925 391 
Q 2381 391 2643 752 
Q 2906 1113 2906 1747 
Q 2906 2381 2643 2742 
Q 2381 3103 1925 3103 
Q 1469 3103 1208 2742 
Q 947 2381 947 1747 
z
M 2906 525 
Q 2725 213 2448 61 
Q 2172 -91 1784 -91 
Q 1150 -91 751 415 
Q 353 922 353 1747 
Q 353 2572 751 3078 
Q 1150 3584 1784 3584 
Q 2172 3584 2448 3432 
Q 2725 3281 2906 2969 
L 2906 3500 
L 3481 3500 
L 3481 -1331 
L 2906 -1331 
L 2906 525 
z
" transform="scale(0.015625)"/>
     </defs>
     <use xlink:href="#DejaVuSans-61"/>
     <use xlink:href="#DejaVuSans-69" x="61.279297"/>
     <use xlink:href="#DejaVuSans-72" x="89.0625"/>
     <use xlink:href="#DejaVuSans-20" x="130.175781"/>
     <use xlink:href="#DejaVuSans-71" x="161.962891"/>
     <use xlink:href="#DejaVuSans-75" x="225.439453"/>
     <use xlink:href="#DejaVuSans-61" x="288.818359"/>
     <use xlink:href="#DejaVuSans-6c" x="350.097656"/>
     <use xlink:href="#DejaVuSans-69" x="377.880859"/>
     <use xlink:href="#DejaVuSans-74" x="405.664062"/>
     <use xlink:href="#DejaVuSans-79" x="444.873047"/>
     <use xlink:href="#DejaVuSans-2c" x="504.052734"/>
    </g>
    <!-- NCD-clinic integration -->
    <g style="fill: #262626" transform="translate(774.373994 408.978191) scale(0.096 -0.096)">
     <defs>
      <path id="DejaVuSans-4e" d="M 628 4666 
L 1478 4666 
L 3547 763 
L 3547 4666 
L 4159 4666 
L 4159 0 
L 3309 0 
L 1241 3903 
L 1241 0 
L 628 0 
L 628 4666 
z
" transform="scale(0.015625)"/>
     </defs>
     <use xlink:href="#DejaVuSans-4e"/>
     <use xlink:href="#DejaVuSans-43" x="74.804688"/>
     <use xlink:href="#DejaVuSans-44" x="144.628906"/>
     <use xlink:href="#DejaVuSans-2d" x="221.630859"/>
     <use xlink:href="#DejaVuSans-63" x="257.714844"/>
     <use xlink:href="#DejaVuSans-6c" x="312.695312"/>
     <use xlink:href="#DejaVuSans-69" x="340.478516"/>
     <use xlink:href="#DejaVuSans-6e" x="368.261719"/>
     <use xlink:href="#DejaVuSans-69" x="431.640625"/>
     <use xlink:href="#DejaVuSans-63" x="459.423828"/>
     <use xlink:href="#DejaVuSans-20" x="514.404297"/>
     <use xlink:href="#DejaVuSans-69" x="546.191406"/>
     <use xlink:href="#DejaVuSans-6e" x="573.974609"/>
     <use xlink:href="#DejaVuSans-74" x="637.353516"/>
     <use xlink:href="#DejaVuSans-65" x="676.5625"/>
     <use xlink:href="#DejaVuSans-67" x="738.085938"/>
     <use xlink:href="#DejaVuSans-72" x="801.5625"/>
     <use xlink:href="#DejaVuSans-61" x="842.675781"/>
     <use xlink:href="#DejaVuSans-74" x="903.955078"/>
     <use xlink:href="#DejaVuSans-69" x="943.164062"/>
     <use xlink:href="#DejaVuSans-6f" x="970.947266"/>
     <use xlink:href="#DejaVuSans-6e" x="1032.128906"/>
    </g>
   </g>
   <g id="text_25">
    <!-- Prioritisation, not cure -->
    <g style="fill: #b00020" transform="translate(765.367244 478.156922) scale(0.096 -0.096)">
     <defs>
      <path id="DejaVuSans-Bold-2c" d="M 653 1209 
L 1778 1209 
L 1778 256 
L 1006 -909 
L 341 -909 
L 653 256 
L 653 1209 
z
" transform="scale(0.015625)"/>
     </defs>
     <use xlink:href="#DejaVuSans-Bold-50"/>
     <use xlink:href="#DejaVuSans-Bold-72" x="73.291016"/>
     <use xlink:href="#DejaVuSans-Bold-69" x="122.607422"/>
     <use xlink:href="#DejaVuSans-Bold-6f" x="156.884766"/>
     <use xlink:href="#DejaVuSans-Bold-72" x="225.585938"/>
     <use xlink:href="#DejaVuSans-Bold-69" x="274.902344"/>
     <use xlink:href="#DejaVuSans-Bold-74" x="309.179688"/>
     <use xlink:href="#DejaVuSans-Bold-69" x="356.982422"/>
     <use xlink:href="#DejaVuSans-Bold-73" x="391.259766"/>
     <use xlink:href="#DejaVuSans-Bold-61" x="450.78125"/>
     <use xlink:href="#DejaVuSans-Bold-74" x="518.261719"/>
     <use xlink:href="#DejaVuSans-Bold-69" x="566.064453"/>
     <use xlink:href="#DejaVuSans-Bold-6f" x="600.341797"/>
     <use xlink:href="#DejaVuSans-Bold-6e" x="669.042969"/>
     <use xlink:href="#DejaVuSans-Bold-2c" x="740.234375"/>
     <use xlink:href="#DejaVuSans-Bold-20" x="778.222656"/>
     <use xlink:href="#DejaVuSans-Bold-6e" x="813.037109"/>
     <use xlink:href="#DejaVuSans-Bold-6f" x="884.228516"/>
     <use xlink:href="#DejaVuSans-Bold-74" x="952.929688"/>
     <use xlink:href="#DejaVuSans-Bold-20" x="1000.732422"/>
     <use xlink:href="#DejaVuSans-Bold-63" x="1035.546875"/>
     <use xlink:href="#DejaVuSans-Bold-75" x="1094.824219"/>
     <use xlink:href="#DejaVuSans-Bold-72" x="1166.015625"/>
     <use xlink:href="#DejaVuSans-Bold-65" x="1215.332031"/>
    </g>
   </g>
   <g id="text_26">
    <!-- Translation -->
    <g style="fill: #262626" transform="translate(789.250806 36.95298) scale(0.12 -0.12)">
     <defs>
      <path id="DejaVuSans-Bold-54" d="M 31 4666 
L 4331 4666 
L 4331 3756 
L 2784 3756 
L 2784 0 
L 1581 0 
L 1581 3756 
L 31 3756 
L 31 4666 
z
" transform="scale(0.015625)"/>
     </defs>
     <use xlink:href="#DejaVuSans-Bold-54"/>
     <use xlink:href="#DejaVuSans-Bold-72" x="57.212891"/>
     <use xlink:href="#DejaVuSans-Bold-61" x="106.529297"/>
     <use xlink:href="#DejaVuSans-Bold-6e" x="174.009766"/>
     <use xlink:href="#DejaVuSans-Bold-73" x="245.201172"/>
     <use xlink:href="#DejaVuSans-Bold-6c" x="304.722656"/>
     <use xlink:href="#DejaVuSans-Bold-61" x="339"/>
     <use xlink:href="#DejaVuSans-Bold-74" x="406.480469"/>
     <use xlink:href="#DejaVuSans-Bold-69" x="454.283203"/>
     <use xlink:href="#DejaVuSans-Bold-6f" x="488.560547"/>
     <use xlink:href="#DejaVuSans-Bold-6e" x="557.261719"/>
    </g>
   </g>
  </g>
  <g id="text_27">
   <!-- AI-assisted evidence-to-pathway-to-intervention prioritisation for Parkinson's disease -->
   <g style="fill: #262626" transform="translate(108.054838 18.597656) scale(0.15 -0.15)">
    <defs>
     <path id="DejaVuSans-Bold-41" d="M 3419 850 
L 1538 850 
L 1241 0 
L 31 0 
L 1759 4666 
L 3194 4666 
L 4922 0 
L 3713 0 
L 3419 850 
z
M 1838 1716 
L 3116 1716 
L 2478 3572 
L 1838 1716 
z
" transform="scale(0.015625)"/>
     <path id="DejaVuSans-Bold-2d" d="M 347 2297 
L 2309 2297 
L 2309 1388 
L 347 1388 
L 347 2297 
z
" transform="scale(0.015625)"/>
     <path id="DejaVuSans-Bold-77" d="M 225 3500 
L 1313 3500 
L 1900 1088 
L 2491 3500 
L 3425 3500 
L 4013 1113 
L 4603 3500 
L 5691 3500 
L 4769 0 
L 3547 0 
L 2956 2406 
L 2369 0 
L 1147 0 
L 225 3500 
z
" transform="scale(0.015625)"/>
     <path id="DejaVuSans-Bold-79" d="M 78 3500 
L 1197 3500 
L 2138 1125 
L 2938 3500 
L 4056 3500 
L 2584 -331 
Q 2363 -916 2067 -1148 
Q 1772 -1381 1288 -1381 
L 641 -1381 
L 641 -647 
L 991 -647 
Q 1275 -647 1404 -556 
Q 1534 -466 1606 -231 
L 1638 -134 
L 78 3500 
z
" transform="scale(0.015625)"/>
     <path id="DejaVuSans-Bold-66" d="M 2841 4863 
L 2841 4128 
L 2222 4128 
Q 1984 4128 1890 4042 
Q 1797 3956 1797 3744 
L 1797 3500 
L 2753 3500 
L 2753 2700 
L 1797 2700 
L 1797 0 
L 678 0 
L 678 2700 
L 122 2700 
L 122 3500 
L 678 3500 
L 678 3744 
Q 678 4316 997 4589 
Q 1316 4863 1984 4863 
L 2841 4863 
z
" transform="scale(0.015625)"/>
     <path id="DejaVuSans-Bold-6b" d="M 538 4863 
L 1656 4863 
L 1656 2216 
L 2944 3500 
L 4244 3500 
L 2534 1894 
L 4378 0 
L 3022 0 
L 1656 1459 
L 1656 0 
L 538 0 
L 538 4863 
z
" transform="scale(0.015625)"/>
     <path id="DejaVuSans-Bold-27" d="M 1350 4666 
L 1350 2931 
L 609 2931 
L 609 4666 
L 1350 4666 
z
" transform="scale(0.015625)"/>
    </defs>
    <use xlink:href="#DejaVuSans-Bold-41"/>
    <use xlink:href="#DejaVuSans-Bold-49" x="77.392578"/>
    <use xlink:href="#DejaVuSans-Bold-2d" x="114.599609"/>
    <use xlink:href="#DejaVuSans-Bold-61" x="156.103516"/>
    <use xlink:href="#DejaVuSans-Bold-73" x="223.583984"/>
    <use xlink:href="#DejaVuSans-Bold-73" x="283.105469"/>
    <use xlink:href="#DejaVuSans-Bold-69" x="342.626953"/>
    <use xlink:href="#DejaVuSans-Bold-73" x="376.904297"/>
    <use xlink:href="#DejaVuSans-Bold-74" x="436.425781"/>
    <use xlink:href="#DejaVuSans-Bold-65" x="484.228516"/>
    <use xlink:href="#DejaVuSans-Bold-64" x="552.050781"/>
    <use xlink:href="#DejaVuSans-Bold-20" x="623.632812"/>
    <use xlink:href="#DejaVuSans-Bold-65" x="658.447266"/>
    <use xlink:href="#DejaVuSans-Bold-76" x="726.269531"/>
    <use xlink:href="#DejaVuSans-Bold-69" x="791.455078"/>
    <use xlink:href="#DejaVuSans-Bold-64" x="825.732422"/>
    <use xlink:href="#DejaVuSans-Bold-65" x="897.314453"/>
    <use xlink:href="#DejaVuSans-Bold-6e" x="965.136719"/>
    <use xlink:href="#DejaVuSans-Bold-63" x="1036.328125"/>
    <use xlink:href="#DejaVuSans-Bold-65" x="1095.605469"/>
    <use xlink:href="#DejaVuSans-Bold-2d" x="1163.427734"/>
    <use xlink:href="#DejaVuSans-Bold-74" x="1204.931641"/>
    <use xlink:href="#DejaVuSans-Bold-6f" x="1252.734375"/>
    <use xlink:href="#DejaVuSans-Bold-2d" x="1321.435547"/>
    <use xlink:href="#DejaVuSans-Bold-70" x="1362.939453"/>
    <use xlink:href="#DejaVuSans-Bold-61" x="1434.521484"/>
    <use xlink:href="#DejaVuSans-Bold-74" x="1502.001953"/>
    <use xlink:href="#DejaVuSans-Bold-68" x="1549.804688"/>
    <use xlink:href="#DejaVuSans-Bold-77" x="1620.996094"/>
    <use xlink:href="#DejaVuSans-Bold-61" x="1713.378906"/>
    <use xlink:href="#DejaVuSans-Bold-79" x="1777.734375"/>
    <use xlink:href="#DejaVuSans-Bold-2d" x="1842.919922"/>
    <use xlink:href="#DejaVuSans-Bold-74" x="1884.423828"/>
    <use xlink:href="#DejaVuSans-Bold-6f" x="1932.226562"/>
    <use xlink:href="#DejaVuSans-Bold-2d" x="2000.927734"/>
    <use xlink:href="#DejaVuSans-Bold-69" x="2042.431641"/>
    <use xlink:href="#DejaVuSans-Bold-6e" x="2076.708984"/>
    <use xlink:href="#DejaVuSans-Bold-74" x="2147.900391"/>
    <use xlink:href="#DejaVuSans-Bold-65" x="2195.703125"/>
    <use xlink:href="#DejaVuSans-Bold-72" x="2263.525391"/>
    <use xlink:href="#DejaVuSans-Bold-76" x="2312.841797"/>
    <use xlink:href="#DejaVuSans-Bold-65" x="2378.027344"/>
    <use xlink:href="#DejaVuSans-Bold-6e" x="2445.849609"/>
    <use xlink:href="#DejaVuSans-Bold-74" x="2517.041016"/>
    <use xlink:href="#DejaVuSans-Bold-69" x="2564.84375"/>
    <use xlink:href="#DejaVuSans-Bold-6f" x="2599.121094"/>
    <use xlink:href="#DejaVuSans-Bold-6e" x="2667.822266"/>
    <use xlink:href="#DejaVuSans-Bold-20" x="2739.013672"/>
    <use xlink:href="#DejaVuSans-Bold-70" x="2773.828125"/>
    <use xlink:href="#DejaVuSans-Bold-72" x="2845.410156"/>
    <use xlink:href="#DejaVuSans-Bold-69" x="2894.726562"/>
    <use xlink:href="#DejaVuSans-Bold-6f" x="2929.003906"/>
    <use xlink:href="#DejaVuSans-Bold-72" x="2997.705078"/>
    <use xlink:href="#DejaVuSans-Bold-69" x="3047.021484"/>
    <use xlink:href="#DejaVuSans-Bold-74" x="3081.298828"/>
    <use xlink:href="#DejaVuSans-Bold-69" x="3129.101562"/>
    <use xlink:href="#DejaVuSans-Bold-73" x="3163.378906"/>
    <use xlink:href="#DejaVuSans-Bold-61" x="3222.900391"/>
    <use xlink:href="#DejaVuSans-Bold-74" x="3290.380859"/>
    <use xlink:href="#DejaVuSans-Bold-69" x="3338.183594"/>
    <use xlink:href="#DejaVuSans-Bold-6f" x="3372.460938"/>
    <use xlink:href="#DejaVuSans-Bold-6e" x="3441.162109"/>
    <use xlink:href="#DejaVuSans-Bold-20" x="3512.353516"/>
    <use xlink:href="#DejaVuSans-Bold-66" x="3547.167969"/>
    <use xlink:href="#DejaVuSans-Bold-6f" x="3590.673828"/>
    <use xlink:href="#DejaVuSans-Bold-72" x="3659.375"/>
    <use xlink:href="#DejaVuSans-Bold-20" x="3708.691406"/>
    <use xlink:href="#DejaVuSans-Bold-50" x="3743.505859"/>
    <use xlink:href="#DejaVuSans-Bold-61" x="3814.171875"/>
    <use xlink:href="#DejaVuSans-Bold-72" x="3881.652344"/>
    <use xlink:href="#DejaVuSans-Bold-6b" x="3930.96875"/>
    <use xlink:href="#DejaVuSans-Bold-69" x="3997.472656"/>
    <use xlink:href="#DejaVuSans-Bold-6e" x="4031.75"/>
    <use xlink:href="#DejaVuSans-Bold-73" x="4102.941406"/>
    <use xlink:href="#DejaVuSans-Bold-6f" x="4162.462891"/>
    <use xlink:href="#DejaVuSans-Bold-6e" x="4231.164062"/>
    <use xlink:href="#DejaVuSans-Bold-27" x="4302.355469"/>
    <use xlink:href="#DejaVuSans-Bold-73" x="4332.970703"/>
    <use xlink:href="#DejaVuSans-Bold-20" x="4392.492188"/>
    <use xlink:href="#DejaVuSans-Bold-64" x="4427.306641"/>
    <use xlink:href="#DejaVuSans-Bold-69" x="4498.888672"/>
    <use xlink:href="#DejaVuSans-Bold-73" x="4533.166016"/>
    <use xlink:href="#DejaVuSans-Bold-65" x="4592.6875"/>
    <use xlink:href="#DejaVuSans-Bold-61" x="4660.509766"/>
    <use xlink:href="#DejaVuSans-Bold-73" x="4727.990234"/>
    <use xlink:href="#DejaVuSans-Bold-65" x="4787.511719"/>
   </g>
  </g>
 </g>
 <defs>
  <clipPath id="p4810196ad7">
   <rect x="470.189022" y="42.95298" width="240.526966" height="470.168415"/>
  </clipPath>
 </defs>
</svg>
